<svg width="751" height="680" viewBox="0 0 751 680" fill="none" xmlns="http://www.w3.org/2000/svg">
<path d="M90.2621 612.99C88.0973 613.196 84.9977 613.196 83.3742 612.98C81.7506 612.763 83.5218 612.586 87.3101 612.596C91.0985 612.596 92.4268 612.773 90.2621 612.99Z" fill="#6958FF"/>
<path d="M612.268 611.031C609.296 611.228 604.642 611.228 601.936 611.031C599.23 610.834 601.67 610.667 607.348 610.667C613.025 610.667 615.239 610.834 612.268 611.031Z" fill="#6958FF"/>
<path d="M637.851 597.243C635.421 597.45 631.652 597.45 629.487 597.243C627.322 597.037 629.32 596.87 633.915 596.87C638.51 596.87 640.282 597.037 637.851 597.243Z" fill="#6958FF"/>
<path d="M143.397 381.717C141.233 381.924 137.907 381.924 136.017 381.717C134.128 381.501 135.89 381.334 139.953 381.334C144.017 381.334 145.562 381.501 143.397 381.717Z" fill="#6958FF"/>
<path d="M86.3262 379.749C84.1614 379.956 81.0618 379.956 79.4382 379.739C77.8147 379.523 79.5858 379.346 83.3742 379.355C87.1625 379.355 88.4909 379.533 86.3262 379.749Z" fill="#6958FF"/>
<path d="M234.151 76.4084C233.934 78.5735 233.757 77.2449 233.757 73.456C233.747 69.6671 233.924 67.8956 234.141 69.5194C234.357 71.1433 234.357 74.2433 234.151 76.4084Z" fill="#6958FF"/>
<path fill-rule="evenodd" clip-rule="evenodd" d="M347.329 2.03716C349.09 3.15908 352.888 7.28262 355.771 11.2093C358.655 15.136 362.187 20.3323 363.614 22.7729C365.031 25.2038 367.579 30.961 369.262 35.5667C370.945 40.1725 372.981 47.0319 373.798 50.8209C374.605 54.6098 375.638 61.4692 376.081 66.075C376.534 70.6808 376.514 79.538 376.042 85.7577C375.569 91.9775 374.28 100.618 373.178 104.948C372.076 109.279 369.075 117.024 366.517 122.171C362.64 129.975 360.396 132.987 352.997 140.377C347.073 146.302 341.848 150.475 337.243 152.964C333.455 155.011 329.696 156.872 328.879 157.098C328.013 157.334 326.586 156.212 325.435 154.411C324.353 152.709 320.732 149.52 317.386 147.325C314.041 145.131 311.276 142.779 311.236 142.1C311.197 141.421 312.929 137.435 315.084 133.242C317.238 129.05 321.893 122.407 325.415 118.48C328.948 114.554 332.274 110.46 332.815 109.377C333.356 108.294 333.691 107.202 333.553 106.946C333.415 106.7 331.319 107.448 328.879 108.629C326.439 109.8 320.909 114.347 316.579 118.736C311.423 123.972 307.615 128.902 305.529 133.055C303.787 136.539 302.351 140.171 302.331 141.115C302.321 142.06 301.534 143.074 300.589 143.349C299.645 143.635 298.425 143.428 297.883 142.887C297.227 142.231 297.473 140.253 298.621 136.953C299.566 134.236 300.343 131.461 300.334 130.782C300.334 130.103 301.219 127.889 302.302 125.861C303.394 123.834 303.837 122.171 303.295 122.171C302.754 122.171 300.875 124.493 299.123 127.338C297.372 130.182 294.951 134.945 293.751 137.917C291.763 142.828 291.173 143.448 287.345 144.56C285.023 145.239 282.13 146.459 280.91 147.266C279.69 148.083 278.253 148.743 277.712 148.743C277.072 148.743 277.102 147.453 277.81 145.052C278.401 143.025 280.162 138.921 281.726 135.949C283.291 132.977 286.715 128.095 289.342 125.123C291.96 122.151 297.175 117.437 300.914 114.662C304.663 111.887 310.164 108.255 313.135 106.582C316.107 104.909 322.975 101.986 328.387 100.087C333.799 98.1874 341.553 96.2191 345.607 95.7172C349.671 95.2055 353.784 95.0874 354.758 95.4417C356.214 95.9731 355.358 97.036 350.084 101.258C346.06 104.486 342.547 108.363 340.716 111.591C339.113 114.436 337.518 118.972 337.184 121.679C336.849 124.385 336.721 127.702 336.908 129.06C337.164 130.979 337.892 129.896 340.175 124.139C342.301 118.766 344.308 115.616 347.555 112.556C349.995 110.243 355.712 106.484 360.258 104.191C364.795 101.898 368.75 99.5849 369.045 99.0436C369.331 98.5023 369.528 96.0617 369.469 93.6308C369.39 90.5505 368.809 88.8184 367.569 87.9524C366.398 87.1454 362.197 86.7124 355.447 86.7124C349.769 86.7124 341.346 87.4013 336.751 88.2378C332.156 89.0743 325.73 90.6981 322.483 91.8594C319.236 93.0207 313.263 95.5794 309.199 97.5477C305.145 99.516 298.946 103.059 295.424 105.411C291.901 107.773 285.593 113.166 281.402 117.408C277.21 121.649 271.827 128.115 269.446 131.766C267.055 135.417 264.841 139.629 264.526 141.115C264.202 142.602 263.385 143.842 262.706 143.861C262.027 143.881 259.469 141.775 257.009 139.187C254.549 136.588 251.036 132.258 249.196 129.552C247.356 126.845 244.404 121.531 242.633 117.742C240.861 113.953 238.214 106.867 236.758 101.996C234.288 93.7785 234.092 91.7807 234.013 74.4402C233.934 56.9324 234.101 55.0822 236.679 45.4081C238.195 39.7198 240.547 32.634 241.914 29.6619C243.282 26.68 246.362 21.4837 248.753 18.0983C253.083 11.9868 253.092 11.9474 250.406 12.597C248.92 12.9611 243.931 15.6675 239.336 18.6199C234.741 21.5625 227.873 26.9162 224.094 30.5083C220.306 34.1004 215.612 39.0309 213.654 41.4716C211.696 43.9024 208.232 49.2167 205.959 53.2812C203.676 57.3359 200.547 64.4216 198.993 69.0274C197.438 73.6332 195.637 81.8212 194.988 87.2339C194.083 94.7528 194.063 99.9195 194.919 109.131C195.598 116.473 197.035 124.356 198.589 129.306C199.987 133.774 202.899 140.742 205.054 144.806C207.219 148.861 211.361 155.287 214.284 159.076C217.197 162.865 222.697 168.957 226.505 172.608L233.432 179.251C230.913 185.195 230.53 187.882 230.884 189.83C231.199 191.592 231.13 193.019 230.726 193.009C230.323 192.999 228.886 192.084 227.528 190.992C226.18 189.889 223.405 187.911 221.378 186.583C219.351 185.254 216.803 184.171 215.721 184.171C214.409 184.171 212.69 185.894 210.564 189.338C208.813 192.182 206.392 196.946 205.192 199.918C203.923 203.077 202.722 208.814 202.328 213.696C201.876 219.167 202.053 223.763 202.83 226.981C203.49 229.688 205.477 234.116 207.248 236.823C209.079 239.618 212.769 243.289 215.799 245.336C218.732 247.304 224.232 249.912 228.02 251.132C231.809 252.353 235.568 253.671 236.384 254.075C237.201 254.478 237.791 255.413 237.703 256.151C237.614 256.889 234.338 265.235 230.402 274.712L223.258 291.935C223.14 307.947 223.435 313.822 223.838 315.308C224.537 317.857 224.262 318.162 219.164 320.475C215.435 322.167 212.828 324.234 210.771 327.117C209.128 329.42 207.514 332.845 207.18 334.745C206.845 336.644 207.101 340.177 207.76 342.618C208.409 345.058 209.59 348.375 210.387 349.999C211.174 351.623 211.814 353.177 211.794 353.443C211.775 353.709 211.43 353.355 211.027 352.636C210.437 351.573 209.699 351.593 206.865 352.735C204.975 353.502 201.276 356.297 198.658 358.954C196.041 361.602 191.987 366.66 189.645 370.173C187.303 373.697 185.01 377.85 184.567 379.405C184.115 380.969 183.298 382.505 182.757 382.82C182.216 383.144 177.345 383.292 171.933 383.164C166.521 383.026 148.367 382.485 131.59 381.944C114.813 381.412 88.0285 380.497 72.0583 379.926C56.0882 379.355 35.7197 378.578 26.7949 378.204C17.8701 377.82 9.67353 377.643 8.59114 377.81C7.50876 377.978 5.12751 379.316 3.29729 380.783C0.24693 383.243 -0.0187463 383.902 0.000933432 388.872C0.0206132 393.104 1.46707 398.162 6.62317 411.999C10.2442 421.742 16.0006 437.459 19.4052 446.936C22.8196 456.404 32.5217 483.202 40.984 506.477C49.4463 529.751 58.3219 554.109 60.7031 560.604C63.0942 567.099 67.2663 578.614 69.9821 586.192C72.6979 593.77 75.0497 600.599 75.2071 601.367C75.4334 602.44 73.2785 603.079 66.1544 604.054C61.0082 604.753 49.0527 606.711 39.5868 608.384C30.1208 610.067 18.6081 612.202 14.0031 613.118L5.63918 614.801C27.7592 618.973 41.0431 621.256 49.4266 622.565C57.8102 623.874 66.4496 625.213 68.6144 625.528C70.7792 625.843 83.3939 627.899 96.658 630.084C109.922 632.279 122.537 634.277 124.702 634.542C126.866 634.798 131.294 635.399 134.542 635.871C137.789 636.343 149.528 638.105 160.617 639.788C171.707 641.471 191.632 644.59 204.897 646.716C218.161 648.842 233.875 651.283 239.828 652.139C245.781 652.985 258.849 654.983 268.856 656.567C278.863 658.142 295.473 660.76 305.755 662.374C316.038 663.978 325.78 665.494 327.403 665.73C329.027 665.966 333.897 666.684 338.227 667.334C342.557 667.974 350.527 669.164 355.939 669.981C361.351 670.808 366.891 671.674 368.239 671.91C369.596 672.146 376.238 673.239 382.998 674.321C389.768 675.414 399.726 677.057 405.138 677.972C410.55 678.888 417.418 679.626 420.39 679.616C424.306 679.596 432.208 677.598 448.926 672.402C461.639 668.446 482.893 661.99 496.157 658.044C509.421 654.107 529.78 647.917 541.42 644.275C553.061 640.644 567.89 635.989 574.384 633.932C580.878 631.885 593.946 627.693 603.412 624.612C612.887 621.542 622.403 618.186 624.567 617.162L628.503 615.293C622.403 616.129 615.761 617.881 609.807 619.721C603.854 621.562 598.433 623.077 597.754 623.087C597.075 623.087 589.99 624.898 582.01 627.092C574.03 629.287 560.628 633.027 552.244 635.399C543.861 637.77 525.923 642.789 512.393 646.539C498.863 650.298 485.579 653.891 482.873 654.53C480.167 655.18 471.971 657.453 464.669 659.579C457.368 661.714 448.729 664.175 445.482 665.051C442.234 665.927 436.035 667.688 431.706 668.958C427.376 670.237 422.171 671.29 420.144 671.3C418.117 671.31 407.264 669.794 396.036 667.924C384.809 666.054 368.091 663.387 358.891 661.99C349.69 660.602 338.178 658.811 333.307 658.024C328.436 657.237 315.822 655.239 305.263 653.595C294.705 651.952 283.202 650.18 279.68 649.659C276.157 649.137 268.856 648.015 263.444 647.169C258.032 646.322 251.833 645.417 249.668 645.161C247.503 644.896 238.431 643.557 229.496 642.179C220.562 640.802 206.176 638.627 197.517 637.347C188.858 636.058 174.245 633.863 165.045 632.476C155.845 631.078 145.444 629.533 141.921 629.031C138.399 628.539 124.682 626.561 111.418 624.632C98.1537 622.713 83.5513 620.459 78.9463 619.623C74.3412 618.776 67.2663 617.674 63.2025 617.153C59.1484 616.621 54.7205 615.972 53.3626 615.696C52.0145 615.43 50.4598 614.791 49.9186 614.289C49.3085 613.718 52.9985 613.088 59.7585 612.616C65.7116 612.202 76.5552 611.937 83.8662 612.025C91.1772 612.114 104.461 613.088 113.386 614.2C122.311 615.312 134.709 616.897 140.937 617.723C147.166 618.56 153.808 619.436 155.697 619.672C157.587 619.908 173.311 621.896 190.629 624.081C207.947 626.276 234.072 629.622 248.684 631.521C263.296 633.42 283.006 636.087 292.472 637.436C301.947 638.794 316.107 640.959 323.959 642.258C331.811 643.557 342.655 645.299 348.067 646.126C353.479 646.962 363.889 648.517 371.191 649.6C378.492 650.672 388.46 651.834 393.33 652.178C401.96 652.778 402.668 652.66 420.882 647.454C431.165 644.512 445.118 640.654 451.878 638.882C458.647 637.111 469.717 634.129 476.477 632.259C483.247 630.389 496.747 626.876 506.489 624.455C516.23 622.034 530.843 618.511 538.96 616.631C547.078 614.751 557.705 612.596 562.576 611.858C567.447 611.11 578.517 610.431 587.176 610.342C595.835 610.244 611.776 609.811 622.599 609.378C633.423 608.945 643.391 608.108 644.739 607.538C647.012 606.573 646.874 606.485 643.017 606.426C640.715 606.396 635.844 605.914 632.193 605.363C628.543 604.812 614.924 603.05 601.936 601.436C588.947 599.832 577.08 598.179 575.565 597.765C572.878 597.037 572.859 596.968 574.581 595C576.126 593.248 577.375 593.012 584.224 593.179C588.553 593.297 597.636 593.907 604.396 594.547C611.165 595.187 625.109 595.728 635.391 595.738C649.187 595.758 656.153 595.324 661.959 594.104C666.288 593.199 672.261 591.349 675.243 590C678.224 588.652 682.652 586.261 685.083 584.686C688.458 582.491 690.681 581.802 694.43 581.793C697.136 581.783 701.505 580.995 704.142 580.041C707.567 578.811 710.607 576.557 714.72 572.168C717.908 568.782 721.785 563.468 723.35 560.358C724.924 557.248 726.961 552.042 727.886 548.794C728.811 545.547 730.179 542.23 730.917 541.413C732.068 540.154 732.166 540.508 731.655 543.874C731.271 546.373 731.458 548.076 732.176 548.548C732.865 549.001 735.217 546.944 738.346 543.136C741.13 539.75 744.447 534.879 745.726 532.31C747.005 529.742 748.727 525.087 749.544 521.977C750.35 518.867 751.01 512.775 751 508.445C750.99 504.115 750.409 498.357 749.701 495.651C748.993 492.945 747.339 488.526 746.021 485.829C744.702 483.133 740.53 477.769 736.742 473.921C732.954 470.073 727.197 465.379 723.95 463.499C720.703 461.61 715.173 458.913 711.65 457.496C708.128 456.079 702.381 454.199 698.858 453.313C695.168 452.388 686.214 451.483 677.703 451.168C669.329 450.863 658.584 451.109 652.857 451.739C647.307 452.339 639.563 453.727 635.637 454.809C631.711 455.892 627.844 456.797 627.027 456.827C625.719 456.856 625.719 456.679 627.027 455.223C627.844 454.327 631.377 451.926 634.899 449.889C638.422 447.851 644.168 445.057 647.691 443.689C651.214 442.311 656.084 440.529 658.515 439.723C660.945 438.915 665.816 437.735 669.339 437.085C672.861 436.435 680.163 435.924 685.575 435.934C690.987 435.953 700.059 436.672 705.746 437.528C711.591 438.423 716.718 439.732 717.554 440.549C718.863 441.838 718.587 442.468 715.094 446.07L711.158 450.135C719.552 449.367 723.98 448.157 726.41 446.946C728.841 445.745 732.284 443.364 734.056 441.661C735.827 439.959 737.716 437.134 738.238 435.373C738.769 433.611 739.005 431.397 738.769 430.452C738.523 429.507 735.532 425.364 732.127 421.25C728.713 417.146 721.283 408.506 715.625 402.06C709.968 395.623 702.548 387.583 699.144 384.197L692.954 378.047C695.277 371.561 695.936 368.904 695.926 367.959C695.916 367.014 692.305 361.917 687.897 356.642C683.498 351.367 673.865 340.482 666.495 332.461C659.135 324.431 652.001 317.168 650.643 316.312L648.183 314.747C656.576 312.601 659.341 311.785 659.745 311.548C660.148 311.322 660.483 309.797 660.483 308.173C660.483 306.549 659.863 304 659.115 302.514C658.357 301.028 655.258 297.485 652.227 294.641C648.764 291.403 646.254 289.75 645.487 290.212C644.68 290.698 644.516 290.534 644.995 289.72C645.477 288.913 643.775 287.073 640.065 284.367C636.956 282.103 631.091 278.619 627.027 276.631C622.973 274.633 616.548 271.966 612.759 270.697L605.872 268.394C611.972 267.489 614.855 266.623 616.203 265.894C617.561 265.166 620.179 263.414 622.038 262.007C623.888 260.609 626.663 257.47 628.198 255.029C629.733 252.589 630.983 249.38 630.973 247.894C630.973 246.349 629.969 244.233 628.651 242.974C627.382 241.753 623.505 239.077 620.041 237.02C616.577 234.963 612.966 232.64 612.021 231.853C610.418 230.524 610.654 229.944 615.544 223.291C618.437 219.364 629.782 203.313 640.774 187.616C651.765 171.919 666.564 150.996 673.659 141.125C680.753 131.264 688.438 120.517 690.74 117.26C693.043 114.012 694.922 110.233 694.922 108.885C694.922 107.527 694.096 104.761 693.092 102.734C692.089 100.707 689.314 97.3607 686.942 95.3039C684.571 93.247 680.192 90.4324 677.211 89.0448C674.229 87.6571 669.801 86.2892 667.371 85.9939C663.976 85.5806 662.018 85.9546 659.007 87.5882C656.842 88.7594 653.487 91.8102 651.538 94.3788C649.6 96.9474 642.761 106.129 636.346 114.79C629.93 123.45 621.064 135.407 616.636 141.362C612.218 147.316 602.054 161.271 594.064 172.362C586.074 183.453 577.71 194.928 575.486 197.851C573.252 200.774 570.773 204.041 569.956 205.114C568.48 207.072 568.47 207.072 564.544 205.104C562.379 204.022 559.506 202.575 558.148 201.906C556.653 201.158 554.34 200.941 552.244 201.345C550.355 201.709 547.698 202.791 546.34 203.766C544.992 204.73 543.103 207.358 542.158 209.611C540.978 212.416 540.702 214.385 541.283 215.91C541.755 217.13 543.969 220.23 546.203 222.799C548.446 225.367 550.266 228.025 550.247 228.704C550.227 229.383 549.233 231.705 548.033 233.87C546.832 236.036 545.406 238.112 544.864 238.476C544.323 238.85 543.654 239.008 543.388 238.84C543.123 238.663 542.65 236.813 542.345 234.717C542.05 232.63 540.722 229.58 539.393 227.936C538.075 226.293 531.679 220.299 525.185 214.621C518.69 208.952 511.163 202.496 508.457 200.282C505.751 198.068 502.76 195.981 501.815 195.627C500.329 195.086 500.241 194.564 501.205 191.799C501.815 190.037 502.061 187.488 501.736 186.14C501.421 184.782 499.03 180.511 496.442 176.643C493.854 172.775 490.174 167.717 488.285 165.404C486.396 163.081 481.033 156.95 476.369 151.764C471.715 146.587 465.624 140.24 462.839 137.671C460.054 135.102 457.23 132.947 456.551 132.888C455.873 132.829 454.21 132.888 452.862 133.016C451.504 133.144 448.847 133.892 446.958 134.689C443.553 136.106 443.484 136.087 440.768 132.839C439.253 131.028 435.819 126.452 433.142 122.663C429.984 118.185 428.124 116.296 427.829 117.25C427.583 118.057 426.245 122.161 424.867 126.353C423.489 130.546 421.089 136.529 419.534 139.639C417.979 142.749 414.073 148.615 410.855 152.679C407.637 156.734 401.497 163.298 397.197 167.264C392.907 171.22 384.74 177.391 379.062 180.963C373.385 184.545 364.962 189.23 360.367 191.375C355.771 193.531 346.916 196.926 340.687 198.934C334.458 200.931 327.383 202.88 324.943 203.264L320.515 203.953C327.403 197.005 330.237 195.4 335.767 193.609C339.831 192.291 345.804 190.253 349.051 189.092C352.298 187.931 358.94 184.969 363.811 182.528C368.681 180.077 374.88 176.476 377.586 174.507C380.292 172.549 385.321 168.711 388.765 165.994C392.208 163.268 397.866 157.501 401.34 153.171C404.813 148.841 409.596 141.539 411.977 136.933C414.358 132.327 417.399 125.241 418.747 121.187C420.095 117.122 421.728 109.594 422.387 104.456C423.086 98.9157 423.303 91.7019 422.909 86.7419C422.545 82.1361 421.344 74.6173 420.242 70.0115C419.121 65.3172 415.923 56.9028 412.961 50.8209C410.048 44.8668 405.335 37.1413 402.471 33.6477C399.608 30.1638 393.724 24.3279 389.394 20.6767C384.651 16.6811 377.813 12.2131 372.175 9.4182C367.028 6.87912 360.613 4.02512 357.907 3.09019C355.201 2.15526 350.999 1.07271 348.559 0.688896L344.131 0L347.329 2.03716ZM363.958 11.4554L368.799 14.2995C371.466 15.8643 376.307 19.0234 379.554 21.3164C382.802 23.6193 387.918 28.0971 390.919 31.2661C393.93 34.4448 397.739 39.0309 399.401 41.4716C401.064 43.9024 403.8 48.6656 405.502 52.051C407.195 55.4365 409.418 61.4102 410.452 65.3369C411.475 69.2636 412.626 76.0148 413 80.345C413.404 84.9508 413.217 91.6921 412.557 96.5833C411.937 101.179 410.521 108.265 409.399 112.329C408.277 116.384 405.817 122.811 403.928 126.599C402.039 130.388 398.162 137.031 395.318 141.362C392.464 145.692 386.826 152.335 382.792 156.124C378.748 159.913 371.496 165.65 366.674 168.868C361.853 172.096 354.364 176.367 350.035 178.375C345.705 180.383 340.608 182.43 338.719 182.941C335.295 183.866 335.275 183.857 335.56 180.825C335.728 179.143 335.059 174.793 334.084 171.161C333.051 167.254 332.726 164.538 333.307 164.528C333.848 164.518 337.833 162.343 342.163 159.686C346.935 156.763 352.947 151.823 357.454 147.129C361.528 142.877 367.176 135.624 370 131.028C372.834 126.422 376.425 119.12 378 114.79C379.564 110.46 381.532 103.147 382.369 98.5515C383.205 93.9458 384.051 87.3028 384.248 83.7895C384.445 80.2663 384.278 72.964 383.864 67.5512C383.461 62.1384 382.192 53.9406 381.05 49.3447C379.909 44.7389 377.468 36.9937 375.618 32.1222C373.759 27.2508 370.384 20.6078 368.101 17.3602L363.958 11.4554ZM223.425 40.2414C228.001 35.5077 231.799 31.6302 231.858 31.6302C231.927 31.6302 230.972 34.8385 229.732 38.7652C228.493 42.6919 226.731 49.6596 225.816 54.2653C224.708 59.8421 224.147 67.5512 224.134 77.3926C224.124 87.9819 224.626 94.5166 225.905 100.52C226.889 105.116 228.975 112.202 230.549 116.266C232.114 120.321 235.066 126.521 237.103 130.034C239.149 133.547 244.581 140.22 249.176 144.865C253.84 149.569 260.049 154.697 263.198 156.439C268.462 159.352 268.807 159.755 268.147 162.274C267.754 163.76 267.478 168.74 267.518 173.346C267.557 177.942 268.108 183.04 268.738 184.664C269.358 186.287 269.633 187.832 269.338 188.108C269.043 188.374 265.638 187.045 261.761 185.156C257.894 183.256 251.154 179.339 246.785 176.436C242.416 173.533 236.01 168.661 232.537 165.611C229.073 162.56 223.494 156.517 220.148 152.187C216.803 147.857 212.926 142.316 211.548 139.885C210.161 137.445 207.917 132.357 206.569 128.568C205.212 124.779 203.342 117.693 202.417 112.822C201.167 106.277 200.872 101.258 201.285 93.6308C201.59 87.9425 202.752 79.7545 203.854 75.4243C204.956 71.0941 207.947 63.3391 210.486 58.2019C214.176 50.7224 216.764 47.1303 223.425 40.2414ZM664.419 97.2918C665.236 96.9966 666.78 96.9868 667.863 97.2623C668.945 97.5379 672.232 98.9353 675.164 100.372C678.096 101.809 681.127 103.866 681.885 104.948C682.711 106.12 683.036 108.019 682.701 109.623C682.386 111.109 681.029 113.55 677.24 117.742L675.499 115.656C674.554 114.514 670.342 111.296 666.141 108.521C661.949 105.746 658.505 103.138 658.495 102.734C658.476 102.331 659.479 101.051 660.709 99.9096C661.939 98.7582 663.612 97.5772 664.419 97.2918ZM650.289 113.56C652.198 111.257 653.939 109.377 654.166 109.377C654.392 109.377 655.386 110.155 656.37 111.099C657.364 112.044 659.824 114.15 661.851 115.774C664.498 117.9 665.167 118.933 664.242 119.445C663.523 119.848 661.398 120.163 659.499 120.144C657.61 120.124 653.989 119.583 646.835 117.742L650.289 113.56ZM639.898 127.092C641.561 124.926 643.273 123.155 643.716 123.155C644.149 123.155 644.227 123.706 643.893 124.385C643.506 125.186 643.709 125.35 644.503 124.877C645.211 124.444 648.409 125.684 652.139 127.83C655.671 129.857 658.554 131.855 658.535 132.258C658.525 132.662 657.078 133.046 655.317 133.114C653.565 133.173 651.794 133.173 651.381 133.114C650.978 133.046 647.721 132.888 644.149 132.75C640.577 132.613 637.477 132.17 637.261 131.766C637.044 131.363 638.235 129.257 639.898 127.092ZM664.803 127.17C665.816 126.757 667.479 126.56 668.493 126.747C669.959 127.023 670.156 127.534 669.477 129.306C669.014 130.526 667.902 131.628 667.017 131.766C665.983 131.924 665.403 131.313 665.403 130.044C665.403 128.961 664.852 128.046 664.173 128.007C663.504 127.967 663.779 127.593 664.803 127.17ZM427.583 143.969C431.293 136.579 431.834 135.929 432.955 137.573C433.644 138.576 434.185 140.279 434.176 141.362C434.156 142.444 432.493 145.357 430.466 147.837C428.449 150.307 424.365 154.519 416.041 162.028L419.75 157.108C421.787 154.401 425.32 148.487 427.583 143.969ZM629.851 140.171C631.18 138.439 632.528 137.415 632.852 137.897C633.167 138.38 634.978 139.462 636.867 140.299C638.766 141.135 641.069 142.385 641.994 143.064C642.919 143.753 643.716 144.973 643.765 145.79C643.804 146.597 643.165 147.886 642.328 148.634C641.157 149.697 638.973 149.864 632.695 149.372C626.791 148.9 624.184 149.067 623.15 149.963C622.363 150.642 623.013 149.431 624.577 147.266C626.142 145.101 628.513 141.913 629.851 140.171ZM656.212 141.804C657.56 141.509 659.312 141.509 660.079 141.804C661.26 142.257 661.211 142.67 659.774 144.314C658.82 145.396 657.944 146.499 657.816 146.774C657.688 147.04 656.714 146.154 653.743 142.346L656.212 141.804ZM450.037 145.741C451.327 145.288 452.822 144.885 453.363 144.845C453.905 144.796 456.778 146.823 459.759 149.343C462.731 151.872 466.5 155.513 468.123 157.442C469.747 159.371 473.073 163.19 475.523 165.916C477.973 168.642 481.81 173.316 484.054 176.289C486.307 179.27 488.433 182.813 488.787 184.162C489.171 185.638 488.767 188.206 487.783 190.559C486.77 192.989 482.106 198.491 475.651 204.878C467.818 212.643 462.682 216.746 455.331 221.106C449.919 224.324 443.051 227.926 440.079 229.117C437.098 230.308 433.339 231.518 431.716 231.814C430.092 232.109 426.884 232.571 420.4 233.369L416.71 227.355C414.683 224.049 409.104 215.3 404.312 207.919C399.52 200.538 394.649 193.511 391.372 190.126L394.698 188.374C396.528 187.409 401.842 184.142 406.506 181.111C411.17 178.07 418.363 172.982 422.486 169.793C426.619 166.605 433.979 160.07 438.84 155.277C443.71 150.475 448.748 146.184 450.037 145.741ZM297.401 151.232C298.208 151.055 300.206 151.154 301.829 151.439C303.453 151.724 306.661 152.787 308.963 153.791C311.266 154.805 314.916 157.393 317.081 159.558C319.246 161.723 321.676 164.499 322.483 165.709C323.29 166.929 324.353 170.364 324.855 173.336C325.425 176.79 325.396 180.363 324.766 183.178C324.215 185.618 322.582 189.378 321.115 191.543C319.659 193.708 316.491 196.552 314.08 197.851C311 199.514 307.507 200.37 302.321 200.725C295.738 201.177 294.518 200.981 291.035 198.855C288.88 197.536 286.282 195.578 285.249 194.495C284.226 193.413 282.002 189.653 280.319 186.13C277.899 181.081 277.269 178.503 277.318 173.828C277.358 170.581 277.879 166.378 278.489 164.479C279.099 162.589 281.608 159.155 284.068 156.852C287.109 154.018 289.726 152.492 292.235 152.118C294.262 151.813 296.585 151.41 297.401 151.232ZM616.233 157.836C617.925 155.543 619.834 153.644 620.464 153.634C621.104 153.624 623.839 154.775 626.545 156.202C629.251 157.629 632.459 159.637 635.893 162.511L632.203 163.14C630.176 163.485 625.059 163.377 613.163 162.019L616.233 157.836ZM642.082 158.082C642.358 157.541 644.513 156.98 651.135 156.566L648.675 159.106C646.353 161.497 646.146 161.536 644.975 159.863C644.001 158.486 643.735 158.417 643.755 159.558C643.785 160.582 643.45 160.739 642.682 160.05C642.082 159.509 641.807 158.623 642.082 158.082ZM606.659 171.614C607.761 170.403 609.591 169.409 610.713 169.409C611.844 169.419 615.092 170.522 617.925 171.87C620.769 173.218 622.875 174.763 622.599 175.304C622.334 175.846 622.668 176.043 623.337 175.747C624.016 175.442 625.236 175.924 626.043 176.81C627.362 178.237 627.362 178.513 626.043 179.31C625.236 179.802 620.366 180.196 615.219 180.205C610.083 180.205 604.878 179.881 603.667 179.477C601.542 178.788 601.522 178.65 603.057 176.289C603.933 174.94 605.557 172.834 606.659 171.614ZM635.824 171.132C637.212 170.187 638.678 169.409 639.081 169.409C639.494 169.409 639.809 169.734 639.79 170.138C639.78 170.551 638.835 172.431 635.627 177.765L634.466 175.304C633.433 173.12 633.581 172.657 635.824 171.132ZM592.342 190.627C594.379 188.226 596.474 186.238 597.016 186.219C597.557 186.199 600.155 186.947 602.782 187.882C605.409 188.817 609.178 190.972 611.146 192.674C613.114 194.387 614.363 196.158 613.901 196.611C613.448 197.074 611.234 197.438 608.981 197.428C606.737 197.418 601.237 197.31 596.77 197.182C592.165 197.054 588.652 196.532 588.652 195.971C588.652 195.43 590.315 193.029 592.342 190.627ZM623.337 187.764C625.099 187.586 627.096 187.36 627.765 187.272C628.621 187.163 628.73 187.646 628.129 188.836C627.657 189.791 626.653 191.08 625.915 191.71C624.872 192.596 624.075 192.428 622.353 190.972C621.143 189.939 620.139 188.866 620.139 188.59C620.139 188.325 621.586 187.951 623.337 187.764ZM256.989 192.527C256.989 191.986 257.776 192.251 258.74 193.107C259.705 193.964 261.82 195.184 263.444 195.824C265.068 196.463 270.165 198.914 274.76 201.266C279.365 203.618 282.681 205.803 282.14 206.108C281.598 206.413 279.168 206.236 276.728 205.714C274.297 205.193 270.42 203.894 268.118 202.831C265.825 201.768 262.371 199.239 260.462 197.201C258.553 195.174 256.989 193.068 256.989 192.527ZM213.566 203.598C215.238 199.947 217.078 196.955 217.639 196.955C218.21 196.955 220.778 198.353 223.346 200.055C225.924 201.768 229.063 204.09 230.333 205.222C231.602 206.364 233.708 209.395 235.007 211.964C236.591 215.103 236.965 216.648 236.138 216.648C235.469 216.648 231.809 215.792 228.02 214.749C224.232 213.705 220.916 213.076 220.64 213.361C220.375 213.637 220.148 217.288 220.148 221.46C220.148 228.103 220.493 229.589 222.854 233.191C224.35 235.455 227.666 238.594 230.234 240.159C234.475 242.747 234.702 243.072 232.694 243.604C231.317 243.978 228.729 243.308 225.806 241.822C223.238 240.513 219.519 237.748 217.531 235.671C215.553 233.595 213.172 230.121 212.257 227.956C211.224 225.545 210.564 221.362 210.545 217.13C210.525 211.471 211.056 209.06 213.566 203.598ZM365.523 201.138C370.797 198.993 376.11 197.398 377.331 197.605C378.561 197.812 380.666 199.121 384.474 203.018L381.03 206.177C379.141 207.919 373.385 211.816 368.239 214.837C363.102 217.859 358.231 221.067 357.415 221.972C356.608 222.878 356.382 223.606 356.923 223.596C357.464 223.586 363.998 220.683 371.437 217.16C378.885 213.627 385.193 210.291 385.458 209.749C385.734 209.208 386.619 208.765 387.426 208.765C388.292 208.765 388.922 209.69 388.952 210.979C388.981 212.357 387.771 214.148 385.754 215.713C383.973 217.091 378.078 220.84 372.667 224.049C367.255 227.247 359.511 231.302 355.447 233.063C351.393 234.815 342.753 237.62 336.259 239.303C327.492 241.566 321.293 242.501 312.151 242.924C301.76 243.407 298.169 243.151 289.028 241.291C283.074 240.08 275.773 237.974 272.792 236.616C269.82 235.258 264.143 231.863 260.187 229.078C254.568 225.131 252.463 222.947 250.583 219.099C249.265 216.392 247.897 211.964 247.562 209.257C247.218 206.551 247.218 203.126 248.192 198.924L251.144 202.86C252.768 205.025 256.428 208.135 259.262 209.769C262.106 211.403 267.527 213.725 271.316 214.936C277.426 216.884 280.28 217.13 296.408 217.13C312.22 217.13 315.91 216.825 324.451 214.778C329.863 213.479 339.162 210.763 345.115 208.736C351.068 206.708 360.258 203.283 365.523 201.138ZM581.833 204.474C584.027 201.581 586.025 199.583 586.261 200.046C586.497 200.518 589.459 202.171 592.834 203.726C596.219 205.281 600.096 207.751 603.904 211.885L591.436 211.56C584.588 211.383 578.714 210.901 578.399 210.487C578.084 210.084 579.629 207.377 581.833 204.474ZM493.943 207.535C495.36 206.049 496.767 204.819 497.082 204.799C497.387 204.789 502.946 209.267 509.441 214.758C515.935 220.26 523.64 227.021 526.552 229.806C529.475 232.581 532.2 235.73 532.624 236.813C533.047 237.896 532.978 240.671 532.486 242.964C531.994 245.267 530.97 248.367 530.213 249.853C529.465 251.349 526.237 256.102 523.03 260.432C519.832 264.763 511.92 273.777 505.456 280.469C498.991 287.152 489.938 295.399 485.333 298.794C480.738 302.199 474.194 306.47 470.8 308.291C467.395 310.121 464.453 311.391 464.236 311.115C464.03 310.85 461.983 307.08 459.7 302.75C457.408 298.42 450.175 286.128 443.622 275.421C437.069 264.723 430.722 254.311 429.511 252.293C428.301 250.276 427.307 248.298 427.298 247.885C427.288 247.481 429.384 246.891 431.952 246.566C434.53 246.241 439.282 245.07 442.53 243.958C445.777 242.836 451.976 239.972 456.305 237.581C460.635 235.189 466.618 231.43 469.589 229.225C472.571 227.021 476.664 223.626 482.391 218.114L486.819 220.329C489.249 221.549 494.13 224.649 497.662 227.218C501.392 229.944 504.068 232.621 504.058 233.615C504.039 234.569 502.09 237.886 499.719 240.996C497.348 244.115 492.693 249.43 489.387 252.805C486.071 256.191 481.151 260.728 478.445 262.893C475.739 265.058 472.866 266.829 472.049 266.829C471.242 266.829 470.416 267.39 470.229 268.059C470.032 268.738 466.952 270.618 463.37 272.242C459.789 273.866 456.827 275.637 456.797 276.179C456.768 276.72 457.919 277.832 459.346 278.639C460.773 279.456 462.446 281.079 463.056 282.251C463.676 283.432 466.067 286.414 468.359 288.894C470.662 291.374 473.102 293.46 473.771 293.519C474.45 293.588 475.67 293.539 476.477 293.43C477.294 293.312 480.61 291.315 483.857 288.982C487.104 286.66 493.766 280.833 498.656 276.041C503.547 271.248 510.976 262.676 515.148 256.988C519.33 251.309 522.754 245.769 522.754 244.686C522.754 243.604 521.642 241.173 520.265 239.273C518.897 237.384 517.785 235.386 517.805 234.845C517.815 234.303 515.276 231.39 512.157 228.359C509.047 225.338 504.275 221.146 501.569 219.049C498.863 216.953 495.468 214.109 491.375 210.241L493.943 207.535ZM610.299 205.704C611.106 205.242 612.996 204.858 614.481 204.848C616.863 204.838 617.069 205.075 616.203 206.797C615.662 207.879 614.885 208.972 614.481 209.218C614.078 209.474 612.632 208.972 611.284 208.106C609.247 206.817 609.079 206.393 610.299 205.704ZM551.723 212.091C552.795 211.344 554.232 210.733 554.921 210.733C555.609 210.733 557.174 211.255 558.394 211.895C559.614 212.534 562.153 214.493 564.052 216.254C565.941 218.006 568.824 220.604 570.448 222.021C572.072 223.448 578.93 227.946 585.7 232.02C592.46 236.104 602.752 241.734 608.558 244.529C614.363 247.324 619.126 250.168 619.136 250.837C619.146 251.516 618.162 253.012 616.941 254.163C615.19 255.817 613.999 256.132 611.284 255.63C609.384 255.285 602.526 252.362 596.032 249.134C589.537 245.906 580.012 240.12 574.876 236.272C569.73 232.434 561.986 225.722 557.656 221.362C550.168 213.833 549.883 213.381 551.723 212.091ZM596.032 220.585C597.114 220.132 599.653 219.787 601.68 219.837C603.707 219.876 605.33 220.398 605.301 220.988C605.271 221.579 604.897 222.937 604.484 224.019C603.736 225.938 603.697 225.938 602.585 223.773C601.955 222.563 600.666 221.618 599.722 221.677C598.777 221.736 597.114 221.707 594.064 221.421L596.032 220.585ZM396.036 224.551C397.256 223.488 398.467 222.582 398.742 222.543C399.008 222.494 402.403 228.576 406.28 236.036C410.156 243.505 414.919 253.484 416.857 258.218C418.796 262.962 420.4 268.05 420.41 269.536C420.429 271.041 418.747 274.889 416.651 278.147C414.565 281.394 412.095 284.721 411.17 285.528C409.586 286.906 409.478 286.551 409.507 280.115C409.527 276.326 408.72 269.24 407.716 264.369C406.712 259.497 404.469 251.969 402.747 247.639C401.025 243.308 398.309 237.443 396.715 234.599C395.121 231.764 393.822 228.773 393.822 227.956C393.822 227.149 394.816 225.614 396.036 224.551ZM228.138 227.71C226.781 223.862 226.8 223.537 228.325 223.567C229.241 223.586 231.199 224.58 232.675 225.781C234.16 226.981 235.814 229.402 236.365 231.154C237.329 234.235 237.26 234.363 234.662 234.402C233.176 234.422 231.425 233.87 230.785 233.172C230.136 232.473 228.945 230.013 228.138 227.71ZM557.174 236.075C557.164 235.671 557.607 235.337 558.148 235.337C558.689 235.337 564.337 239.037 570.694 243.545C577.051 248.062 585.572 253.671 589.636 256.014C593.69 258.346 598.118 261.111 601.936 264.054L598.984 263.326C597.36 262.932 595.146 262.292 594.064 261.899C592.981 261.505 588.996 259.301 585.208 257.008C581.419 254.714 573.892 249.695 568.48 245.867C563.068 242.039 558.315 238.437 557.912 237.866C557.518 237.285 557.184 236.488 557.174 236.075ZM376.11 237.049C376.917 236.734 378.059 236.449 378.639 236.4C379.279 236.36 379.515 237.758 379.249 240.011C379.003 242.049 378.147 244.814 377.35 246.162C376.553 247.52 374.064 250.099 371.82 251.9C369.577 253.701 365.533 255.807 362.827 256.594C360.121 257.372 354.138 258.169 349.543 258.366C344.938 258.553 340.293 258.494 339.211 258.228C337.804 257.874 341.464 255.571 352.003 250.178C360.121 246.015 368.534 241.488 370.699 240.11C372.863 238.742 375.294 237.364 376.11 237.049ZM494.573 257.972C502.691 249.853 509.903 243.21 510.612 243.21C511.32 243.21 512.117 243.653 512.393 244.194C512.658 244.735 511.271 247.727 509.293 250.837C507.315 253.957 502.779 259.517 499.207 263.198C494.071 268.492 491.68 270.195 487.793 271.327C485.087 272.114 482.184 272.754 481.338 272.744C480.502 272.744 486.455 266.091 494.573 257.972ZM543.103 246.28C542.916 245.227 543.723 245.08 546.813 245.611C548.987 245.985 553.868 248.229 557.656 250.601C561.445 252.963 567.309 257.578 570.694 260.865C574.079 264.152 576.844 266.947 576.854 267.075C576.854 267.213 573.862 267.636 570.212 268.01C566.551 268.384 561.346 269.477 558.64 270.431C555.934 271.386 550.512 274.289 546.586 276.877C542.66 279.475 535.133 285.912 529.849 291.187C524.565 296.471 516.486 305.624 511.891 311.548C507.296 317.463 502.76 323.112 501.815 324.096C500.87 325.08 500.093 326.104 500.093 326.37C500.093 326.645 500.644 326.852 501.323 326.832C502.002 326.803 505.426 324.746 508.949 322.246C512.462 319.746 518.218 315.692 521.741 313.241C525.253 310.781 530.124 307.385 532.565 305.693C534.995 304 541.637 299.719 547.324 296.166C553.002 292.614 559.644 288.707 562.084 287.476C564.515 286.246 569.612 284.16 573.4 282.831C578.851 280.912 582.945 280.302 593.08 279.899C601.444 279.564 607.741 279.8 611.284 280.597C614.255 281.267 619.903 283.314 623.829 285.144C627.755 286.984 630.963 288.598 630.953 288.726C630.953 288.864 626.201 289.031 620.376 289.09C613.183 289.159 607.289 289.848 601.936 291.236C597.606 292.368 590.295 294.897 585.7 296.875C581.095 298.843 574.236 302.258 570.448 304.463C566.66 306.667 558.463 312.277 552.244 316.932C544.274 322.886 533.204 333.121 514.853 351.514C500.506 365.883 483.217 383.597 476.428 390.88C469.629 398.162 460.684 408.102 456.542 412.974C452.389 417.845 449.319 422.156 449.703 422.549C450.087 422.943 452.389 421.585 454.829 419.528C457.26 417.471 460.182 415.158 461.314 414.381C462.446 413.613 465.516 411.202 468.143 409.037C470.76 406.872 478.248 400.357 484.772 394.551C491.306 388.744 500.191 380.812 504.521 376.925C511.34 370.803 512.471 370.105 513.023 371.738C513.377 372.772 515.542 378.922 517.844 385.418C520.137 391.913 524.26 402.325 526.985 408.545C529.721 414.775 533.922 423.632 536.333 428.228C538.744 432.834 542.326 439.25 544.294 442.498C546.262 445.745 550.571 451.945 553.878 456.276C557.174 460.606 563.167 467.249 567.171 471.038C571.186 474.827 575.87 479.039 577.582 480.387C579.294 481.745 580.937 482.739 581.233 482.601C581.518 482.473 581.951 482.69 582.177 483.093C582.403 483.507 580.081 484.402 577.011 485.101C573.941 485.79 563.235 488.132 553.228 490.307C543.211 492.482 532.584 494.726 529.613 495.307C526.483 495.907 520.471 496.084 515.345 495.71C510.228 495.336 503.37 495.533 499.109 496.163C491.896 497.245 491.463 497.186 480.413 493.663C474.185 491.685 465.771 488.949 461.717 487.581C457.654 486.223 451.897 484.235 448.926 483.162C445.944 482.09 441.3 480.781 438.594 480.259C435.888 479.728 428.577 478.438 422.358 477.385C416.129 476.332 408.385 475.486 405.138 475.496C401.891 475.496 396.135 476.165 392.346 476.972C388.558 477.779 382.802 479.718 379.554 481.273C376.229 482.867 369.99 487.414 365.287 491.675C360.682 495.828 355.703 500.089 354.217 501.133C352.219 502.53 351.383 502.707 351.019 501.792C350.753 501.123 342.763 477.533 333.258 449.387C323.753 421.24 314.887 396.558 313.568 394.521C312.141 392.336 309.662 390.23 307.477 389.335C305.234 388.419 300.698 387.839 295.915 387.839C291.586 387.839 282.622 387.406 275.99 386.874C264.32 385.949 263.749 385.792 258.278 382.121C255.169 380.035 249.294 375.301 245.24 371.6C241.176 367.9 235.341 361.749 232.261 357.921C229.181 354.103 225.659 348.985 224.439 346.544C223.218 344.114 222.195 340.748 222.166 339.075C222.136 337.392 222.776 334.794 223.592 333.298C224.399 331.802 226.289 329.962 227.774 329.214C229.26 328.466 231.7 328.072 233.186 328.348C234.672 328.623 237.221 330.099 238.844 331.625C240.468 333.15 242.455 335.256 243.272 336.299C244.079 337.343 246.047 340.63 247.641 343.602C249.235 346.574 252.089 351.219 253.988 353.925C255.887 356.632 260.216 362.172 263.611 366.227C266.996 370.292 272.005 375.498 274.73 377.791C277.446 380.094 280.122 381.973 280.664 381.973C281.205 381.973 281.638 381.649 281.618 381.235C281.608 380.832 281.008 379.838 280.28 379.021C279.562 378.214 274.868 370.902 269.85 362.783C264.831 354.663 259.587 346.249 258.209 344.084C256.832 341.919 255.139 339.045 254.46 337.687C253.26 335.315 253.388 335.158 258.327 332.993C261.141 331.753 264.487 329.538 265.766 328.072C267.045 326.596 267.754 326.055 267.341 326.862C266.73 328.072 266.849 328.121 267.97 327.117C269.112 326.104 270.42 327.984 275.793 338.435C279.335 345.334 284.373 354.299 286.991 358.354C289.608 362.418 294.459 369.17 297.765 373.362C301.081 377.555 304.23 380.979 304.771 380.979C305.313 380.969 302.429 374.218 298.356 365.971C294.292 357.724 288.24 344.556 284.905 336.703C281.559 328.859 277.672 318.89 276.255 314.56C274.838 310.23 272.871 303.587 271.867 299.798C270.873 296.009 269.732 290.252 269.328 287.004C268.935 283.756 268.856 281.326 269.171 281.591C269.476 281.867 270.765 284.967 272.024 288.48C273.284 292.003 275.704 296.649 277.407 298.814C279.099 300.979 282.022 306.962 283.901 312.1C285.78 317.247 290.454 329.204 294.272 338.671C298.1 348.148 303.02 359.998 305.214 364.997C307.399 370.006 309.809 375.104 310.567 376.315C311.315 377.535 315.369 383.843 319.561 390.338C323.762 396.834 330.148 406.134 333.75 411.005C337.361 415.877 346.148 426.624 353.292 434.871C360.426 443.128 366.713 449.879 367.255 449.879C367.796 449.879 367.943 449.111 367.599 448.157C367.245 447.212 366.438 445.775 365.798 444.958C365.169 444.151 360.642 437.065 355.742 429.212C350.842 421.368 344.288 410.513 341.179 405.101C338.07 399.688 332.648 389.502 329.125 382.465C325.602 375.429 320.623 364.357 318.055 357.862C315.487 351.367 313.086 344.724 312.722 343.1C312.122 340.472 312.437 340.689 315.605 345.068C317.563 347.775 322.523 356.415 326.636 364.259C330.749 372.112 335.196 380.527 336.544 382.957C337.883 385.398 342.743 394.255 347.339 402.64C351.944 411.035 358.438 422.106 361.774 427.244C365.119 432.391 368.593 437.813 369.518 439.299C370.433 440.795 371.2 443.01 371.259 446.434L373.257 443.974C374.359 442.626 378.925 435.314 383.412 427.736C387.889 420.158 395.643 406.655 400.631 397.72C405.62 388.793 414.752 371.295 420.931 358.846C427.101 346.397 434.786 329.794 443.838 307.671L444.517 312.1C444.881 314.54 444.694 321.626 444.094 327.846C443.494 334.075 442.087 342.047 440.965 345.56C439.853 349.083 438.535 352.735 438.033 353.679C437.531 354.634 437.324 355.736 437.59 356.14C437.846 356.553 441.054 353.955 444.724 350.373C448.384 346.79 454.042 341.407 457.289 338.406C460.537 335.404 465.516 331.143 468.359 328.928C471.203 326.714 473.742 324.893 474.017 324.893C474.283 324.893 476.28 323.565 478.445 321.941C480.61 320.317 482.371 319.323 482.361 319.727C482.342 320.14 476.261 328.928 468.832 339.262C461.402 349.605 452.015 362.222 447.971 367.31C443.927 372.398 435.957 381.875 430.259 388.37C424.562 394.856 415.47 405.071 410.058 411.055C404.646 417.048 397.05 425.462 393.173 429.763C389.296 434.064 384.455 439.791 382.408 442.498C380.361 445.204 376.986 449.416 374.9 451.847C372.824 454.288 371.132 456.837 371.151 457.506C371.171 458.185 376.17 454.465 382.26 449.249C388.351 444.023 401.458 432.184 411.386 422.923C421.315 413.663 433.201 402.099 437.806 397.227C442.402 392.356 445.944 388.813 445.678 389.354C445.413 389.896 443.1 395.653 440.522 402.148C437.954 408.643 435.474 414.519 435.002 415.188C434.52 415.906 434.579 416.625 435.15 416.91C435.691 417.186 438.131 414.194 440.581 410.267C443.031 406.35 451.937 392.061 460.359 378.529C468.782 364.997 482.893 343.08 491.709 329.814C500.536 316.558 511.015 301.658 514.99 296.717C518.976 291.777 525.991 283.402 530.596 278.117C535.192 272.832 540.289 267.252 541.912 265.727C543.536 264.192 547.639 261.722 551.034 260.216C554.704 258.592 557.095 256.948 556.938 256.171C556.79 255.443 553.671 253.228 550.011 251.25C546.35 249.262 543.241 247.028 543.103 246.28ZM249.383 252.805C251.459 248.14 252.866 246.162 254.116 246.162C255.631 246.162 255.857 246.871 255.582 250.837C255.405 253.415 253.88 260.383 252.197 266.337C250.504 272.291 248.773 280.046 247.582 289.956L245.781 286.02C244.788 283.855 243.754 279.426 243.479 276.179C243.134 272.085 243.508 268.62 244.709 264.861C245.663 261.889 247.759 256.466 249.383 252.805ZM278.696 253.051C278.696 252.51 279.03 252.057 279.434 252.047C279.837 252.038 282.72 253.14 285.83 254.508C288.939 255.876 293.702 257.431 296.408 257.972C299.113 258.513 301.347 259.517 301.367 260.186C301.396 260.865 300.835 261.928 300.137 262.538C299.438 263.149 297.431 263.926 295.669 264.261C293.485 264.674 291.301 264.27 288.782 262.991C286.755 261.958 283.655 259.527 281.894 257.578C280.132 255.63 278.696 253.593 278.696 253.051ZM387.761 264.32C390.664 261.918 393.448 260.147 393.96 260.373C394.472 260.6 394.895 262.263 394.885 264.054C394.885 266.642 393.901 268.315 390.172 272.065C387.574 274.663 382.132 278.865 378.078 281.394C374.015 283.924 367.599 287.329 363.811 288.972C360.022 290.606 356.834 292.377 356.716 292.919C356.608 293.46 357.72 293.765 359.176 293.608C360.642 293.45 364.273 292.85 367.255 292.279C370.226 291.708 376.425 289.494 381.03 287.348C385.626 285.203 390.831 282.369 395.79 278.639V281.099C395.79 282.457 394.865 286.335 393.734 289.71C392.602 293.096 389.965 299.188 387.879 303.242C385.478 307.907 381.217 313.704 376.307 318.988C372.037 323.594 365.267 329.558 361.252 332.255C357.247 334.941 351.088 338.169 347.575 339.429C342.035 341.417 340.52 341.584 336.259 340.708C331.802 339.793 330.404 338.75 321.44 329.598C315.989 324.037 306.916 315.003 301.268 309.531C295.62 304.049 291.438 299.808 291.98 300.103C292.521 300.398 295.394 302.288 298.375 304.305C301.347 306.313 305.008 308.232 306.493 308.557C307.979 308.881 310.301 309.373 311.659 309.639C313.362 309.984 313.972 309.757 313.647 308.901C313.391 308.232 312.171 307.189 310.941 306.598C309.711 305.998 304.939 301.963 300.343 297.633C295.738 293.302 289.716 286.482 286.951 282.477C284.186 278.472 281.333 274.092 279.296 270.274L282.189 272.321C283.783 273.443 287.414 275.322 290.258 276.503C293.101 277.674 296.86 278.649 298.621 278.668C300.383 278.678 303.148 278.058 304.771 277.291C306.395 276.513 310.823 274.555 321.499 269.959L337.243 272.901C349.287 275.155 354.837 275.736 360.859 275.401C366.979 275.057 370.266 274.25 375.618 271.819C379.407 270.087 384.868 266.711 387.761 264.32ZM235.627 277.163L240.271 286.02C244.551 294.208 244.945 295.536 245.319 303.39C245.693 311.056 246.027 312.267 248.684 315.593C250.308 317.63 252.187 319.441 252.866 319.638C253.545 319.825 255.759 318.191 257.786 316.007C259.813 313.832 261.81 312.06 262.214 312.07C262.617 312.09 262.676 313.103 262.352 314.314C262.017 315.534 260.581 317.788 259.154 319.323C257.717 320.868 255.228 322.797 253.604 323.614C251.754 324.549 249.452 324.883 247.454 324.509C245.201 324.086 242.957 322.384 239.868 318.742C237.457 315.908 234.584 311.037 233.472 307.917C232.183 304.295 231.641 300.939 231.966 298.568C232.242 296.54 233.186 290.891 234.052 286.02L235.627 277.163ZM421.482 286.197C423.303 281.965 425.113 278.865 425.497 279.308C425.881 279.751 425.782 281.887 425.271 284.052C424.759 286.217 422.574 290.98 420.4 294.631C418.225 298.292 416.228 301.274 415.962 301.274C415.686 301.274 416.07 299.621 416.808 297.584C417.556 295.556 419.652 290.429 421.482 286.197ZM600.952 310.712C602.034 310.446 608.007 310.358 614.235 310.515C623.82 310.741 626.378 311.165 630.963 313.241C634.21 314.708 639.504 318.634 644.247 323.083C648.577 327.147 656.33 334.872 661.487 340.236C666.653 345.6 673.176 352.764 676 356.14C678.834 359.525 680.92 362.625 680.655 363.029C680.389 363.442 678.726 363.107 676.965 362.291C674.849 361.316 670.923 360.854 665.403 360.913C660.798 360.962 654.382 361.543 651.135 362.212C647.888 362.871 641.462 364.544 636.867 365.922C632.262 367.29 623.741 370.36 617.925 372.742C612.1 375.114 602.802 379.336 597.262 382.111C591.712 384.896 582.522 389.974 576.844 393.409C571.156 396.844 565.843 399.668 565.036 399.688C564.219 399.717 560.854 395.623 557.548 390.604C554.252 385.595 550.04 378.962 548.2 375.862C546.36 372.772 544.303 370.006 543.634 369.711C542.719 369.317 542.808 370.508 543.969 374.346C544.825 377.19 546.645 382.396 547.993 385.91C549.351 389.433 552.126 396.293 554.173 401.164C556.21 406.035 558.591 412.462 559.457 415.434C560.313 418.416 563.275 426.387 566.02 433.148C568.765 439.919 571.314 446.119 571.688 446.926C572.052 447.743 570.566 446.415 568.382 443.974C566.197 441.543 562.409 436.888 559.978 433.641C557.538 430.393 553.917 425.079 551.929 421.831C549.942 418.583 548.328 415.483 548.357 414.942C548.377 414.401 547.688 413.298 546.832 412.482C545.425 411.163 545.268 411.261 545.317 413.466C545.346 414.824 545.976 417.924 546.704 420.355C547.433 422.795 548.761 426.23 549.646 427.982C550.532 429.743 551.034 431.18 550.768 431.18C550.493 431.18 548.771 428.858 546.931 426.013C545.1 423.179 538.616 411.773 532.535 400.672C526.454 389.581 520.54 378.755 519.389 376.61C518.247 374.474 516.752 372.152 516.083 371.443C515.404 370.744 514.833 369.839 514.823 369.426C514.804 369.022 518.661 364.928 523.384 360.322C528.107 355.726 536.018 348.414 540.958 344.084C545.898 339.754 554.33 333.268 559.693 329.657C565.066 326.055 573.449 321.124 578.32 318.703C583.191 316.282 589.833 313.605 593.08 312.749C596.327 311.883 599.869 310.968 600.952 310.712ZM387.338 332.412C393.252 327.915 398.25 324.273 398.447 324.323C398.654 324.372 397.473 326.734 395.83 329.568C394.176 332.412 391.392 336.368 389.64 338.356C387.879 340.344 384.976 343.553 379.938 349.005L376.583 345.56C374.733 343.671 373.434 341.791 373.68 341.378C373.936 340.974 374.694 340.63 375.372 340.62C376.042 340.6 381.434 336.91 387.338 332.412ZM416.336 334.981C418.697 331.605 420.754 328.83 420.911 328.83C421.059 328.83 419.071 333.15 416.474 338.425C413.886 343.71 409.222 352.233 406.112 357.37C403.003 362.517 399.549 368.274 398.437 370.164C397.335 372.063 393.478 378.263 389.876 383.942C386.275 389.63 381.965 396.489 377.281 404.116L371.387 397.72C368.15 394.206 361.055 386.008 355.614 379.513C350.182 373.018 345.814 367.595 345.912 367.447C346.01 367.31 348.087 368.028 350.527 369.042C352.957 370.065 360.377 372.289 379.062 377.053L388.774 366.965C394.117 361.424 401.537 353.335 405.266 349.005C408.995 344.674 413.974 338.366 416.336 334.981ZM212.591 361.562C214.579 360.352 216.321 359.348 216.458 359.348C216.586 359.348 218.141 360.293 219.902 361.464C221.654 362.625 225.531 365.893 228.512 368.727C231.484 371.561 237.909 376.6 251.636 385.969L245.732 385.939C242.485 385.92 230.087 385.418 218.18 384.817C206.274 384.207 196.306 383.518 196.041 383.282C195.765 383.046 196.838 380.546 198.422 377.741C199.996 374.927 203.027 370.636 205.143 368.195C207.258 365.765 210.614 362.773 212.591 361.562ZM657.039 377.082C658.662 376.541 663.976 376.315 668.847 376.57C674.829 376.885 678.5 377.574 680.163 378.686C681.511 379.582 687.493 385.241 693.446 391.234C699.4 397.237 708.925 407.197 714.602 413.367C720.28 419.538 724.048 424.301 722.966 423.947C721.884 423.592 717.229 422.864 712.634 422.333C708.029 421.801 700.61 421.358 696.152 421.349C691.685 421.349 682.938 422.008 676.719 422.815C670.49 423.632 660.198 425.886 653.841 427.824C647.475 429.763 638.51 432.824 633.915 434.625C629.31 436.426 619.018 441.031 611.037 444.87C603.048 448.708 595.412 452.073 594.064 452.339C591.978 452.762 591.141 452.123 588.632 448.157C586.999 445.588 582.571 437.174 578.792 429.458C575.014 421.752 571.924 414.775 571.924 413.958C571.924 413.151 575.575 410.326 580.042 407.689C584.499 405.051 591.476 401.095 595.54 398.91C599.594 396.726 606.236 393.606 610.299 391.982C614.354 390.358 620.11 388.144 623.091 387.071C626.063 385.989 633.374 383.686 639.327 381.954C645.28 380.231 651.037 378.637 652.119 378.43C653.201 378.224 655.415 377.614 657.039 377.082ZM14.4262 388.833C15.6955 388.223 25.5649 388.055 40.5707 388.38C53.8251 388.665 72.8652 389.325 82.8822 389.846C92.8894 390.368 120.343 391.46 143.889 392.277C167.426 393.094 190.895 393.98 196.041 394.236C201.177 394.501 212.473 394.964 221.132 395.269C229.792 395.584 239.749 396.017 243.272 396.253C246.785 396.479 256.526 396.942 264.92 397.257C273.303 397.582 285.702 398.251 292.472 398.753C300.117 399.314 305.185 400.131 305.873 400.908C306.484 401.587 309.219 408.791 311.954 416.91C314.69 425.029 324.431 453.815 333.612 480.879C342.793 507.943 353.931 540.498 358.349 553.213C362.777 565.938 368.553 582.098 371.191 589.134C373.818 596.171 378.216 608.128 380.962 615.706C383.697 623.284 385.96 630.596 385.99 631.944C386.009 633.302 385.232 635.448 384.268 636.727C382.772 638.695 381.247 639.168 374.143 639.847C368.56 640.378 360.524 640.175 350.035 639.237C341.376 638.469 331.408 637.406 327.895 636.894C324.372 636.373 315.517 635.251 308.215 634.395C300.904 633.539 288.506 631.984 280.664 630.94C272.811 629.897 259.754 628.145 251.636 627.063C243.518 625.971 229.122 624.16 219.656 623.048C210.181 621.926 192.912 619.731 181.281 618.166C169.64 616.602 157.911 615.076 155.205 614.771C152.499 614.476 148.514 614.013 146.349 613.748C144.185 613.482 134 612.143 123.718 610.775C113.435 609.407 102.365 607.872 99.118 607.37C95.8708 606.868 91.6594 606.219 86.3262 605.422L80.0975 588.918C76.6732 579.834 72.3831 568.418 70.5528 563.547C68.7325 558.675 64.2848 546.501 60.6834 536.483C57.0919 526.474 52.0047 512.519 49.3971 505.483C46.7895 498.446 41.3284 483.389 37.2645 472.022C33.2007 460.655 25.8601 440.175 20.95 426.506C16.0498 412.846 11.6513 400.003 11.1987 397.966C10.6772 395.682 10.7461 393.429 11.3758 392.041C11.9367 390.811 13.3044 389.364 14.4262 388.833ZM651.627 458.864C654.599 458.352 661.024 457.949 665.895 457.959C670.766 457.968 678.293 458.579 682.623 459.317C686.952 460.055 693.368 461.6 696.89 462.761C700.403 463.922 706.602 466.58 710.666 468.676C714.72 470.772 720.595 474.6 723.714 477.179C726.823 479.757 730.808 483.881 732.57 486.331C734.321 488.792 736.752 493.102 737.972 495.927C739.182 498.751 740.461 503.829 740.816 507.205C741.209 511.063 740.934 515.885 740.078 520.127C739.32 523.847 738.484 527.025 738.218 527.193C737.942 527.36 737.411 525.864 737.027 523.876C736.643 521.878 734.587 516.702 732.442 512.372C729.923 507.284 726.164 501.93 721.815 497.236C717.82 492.915 711.493 487.611 706.238 484.166C701.368 480.978 694.283 477.09 690.495 475.516C686.706 473.951 680.064 471.727 675.735 470.565C671.405 469.404 663.435 468.203 658.023 467.888C652.522 467.574 644.591 467.82 640.065 468.44C635.303 469.099 632.144 469.975 632.439 470.546C632.705 471.087 635.47 471.54 638.589 471.549C641.699 471.569 647.12 472.002 650.643 472.534C654.156 473.055 658.367 473.744 659.991 474.049C661.614 474.364 665.6 475.516 668.847 476.598C672.094 477.681 677.407 480.043 680.655 481.834C683.902 483.625 689.215 487.207 692.462 489.786C695.71 492.364 700.354 496.871 702.794 499.804C705.225 502.737 708.423 507.215 709.899 509.744C711.375 512.273 713.49 516.997 714.583 520.245C715.95 524.28 716.58 528.649 716.56 534.023C716.541 538.353 715.832 544.553 714.976 547.8C714.12 551.048 712.191 556.146 710.686 559.118C709.19 562.1 705.805 566.657 703.158 569.235C700.521 571.823 698.032 573.929 697.628 573.91C697.215 573.9 697.52 572.67 698.288 571.174C699.065 569.688 700.206 565.594 700.836 562.07C701.486 558.439 701.682 553.341 701.299 550.261C700.925 547.289 699.518 541.089 698.179 536.483C696.841 531.887 694.411 525.461 692.777 522.213C691.154 518.965 688.202 513.877 686.234 510.895C684.256 507.923 679.523 502.383 675.715 498.594C671.907 494.805 665.708 489.914 661.929 487.709C658.151 485.514 652.631 482.779 649.659 481.637C646.678 480.495 641.807 479.019 638.835 478.35C635.726 477.661 627.126 477.198 618.663 477.258C605.98 477.346 604.179 477.179 605.872 476.037C606.954 475.309 611.156 473.144 615.219 471.235C619.273 469.325 627.913 465.969 634.407 463.785C640.902 461.59 648.646 459.386 651.627 458.864ZM390.87 484.727C392.76 484.019 394.757 483.408 395.298 483.389C395.839 483.369 394.728 484.304 392.838 485.475C390.939 486.646 387.23 489.854 384.583 492.61C381.936 495.366 377.459 500.71 374.635 504.498C371.81 508.287 368.268 513.828 366.763 516.8C365.247 519.782 363.299 524.339 360.859 531.641L357.582 521.514C355.781 515.944 354.453 511.132 354.63 510.826C354.807 510.512 357.828 507.835 361.351 504.892C364.864 501.94 371.063 496.94 375.126 493.781C379.181 490.622 383.608 487.581 384.966 487.03C386.314 486.479 388.971 485.446 390.87 484.727ZM405.601 486.567C408.68 485.327 413.177 484.373 415.962 484.363C418.668 484.363 421.768 484.619 422.85 484.944C424.424 485.426 423.549 486.193 418.422 488.811C414.899 490.612 410.845 493.328 409.418 494.854C407.982 496.369 404.282 501.152 401.192 505.483C398.103 509.813 393.891 516.682 391.844 520.737C389.798 524.801 386.747 532.104 385.065 536.975C383.382 541.846 381.237 546.61 380.292 547.564C379.338 548.519 377.016 549.572 375.126 549.907C372.391 550.399 371.269 550.103 369.715 548.47C368.071 546.757 367.855 545.626 368.386 541.699C368.74 539.101 369.774 534.101 370.689 530.578C371.604 527.065 373.562 521.75 375.048 518.768C376.524 515.796 378.974 511.368 380.479 508.927C381.985 506.496 384.829 502.806 386.797 500.729C388.765 498.653 392.582 495.11 395.269 492.856C397.965 490.602 402.609 487.768 405.601 486.567ZM598.984 489.697C603.972 488.851 612.602 488.467 622.599 488.654C637.182 488.91 638.845 489.136 645.231 491.685C649.019 493.201 654.107 495.877 656.547 497.629C658.977 499.381 663.189 503.229 665.895 506.191C668.601 509.153 672.242 514.409 673.983 517.873C675.735 521.347 677.89 527.065 678.785 530.578C679.917 535.085 680.231 539.022 679.818 543.864C679.415 548.578 678.313 552.623 676.335 556.658C674.751 559.905 671.641 564.226 669.427 566.253C666.78 568.684 663.455 570.495 659.745 571.538C655.779 572.64 650.112 573.112 640.803 573.083C631.918 573.063 621.645 572.207 609.807 570.505C600.066 569.107 590.325 567.523 588.16 566.991C585.995 566.46 583.998 565.781 583.732 565.495C583.456 565.21 588.553 564.984 595.048 564.984C601.542 564.993 610.614 564.747 615.219 564.442C619.815 564.137 628.897 563.261 635.391 562.503C641.885 561.736 650.407 560.23 654.333 559.138C658.249 558.045 663.238 556.048 665.403 554.689C667.568 553.341 669.555 551.786 669.831 551.245C670.096 550.704 670.205 550.094 670.077 549.887C669.939 549.67 665.846 550.113 660.975 550.861C656.104 551.619 646.363 552.928 639.327 553.784C631.485 554.729 613.783 555.565 593.572 555.929C565.174 556.431 560.726 556.323 561.474 555.113C561.956 554.345 562.281 550.281 562.212 546.078C562.114 540.154 561.415 536.758 559.103 530.824C557.469 526.632 554.439 520.983 552.372 518.276C550.296 515.57 545.888 511.368 542.562 508.927C539.246 506.496 536.855 504.223 537.248 503.878C537.652 503.534 542.178 502.343 547.324 501.231C552.461 500.109 564.416 497.363 573.892 495.11C583.358 492.866 594.654 490.425 598.984 489.697ZM432.69 492.039C436.291 490.681 439.046 490.337 443.022 490.74C445.993 491.045 451.976 492.197 456.305 493.309C460.635 494.411 468.379 496.881 473.525 498.8C478.662 500.719 488.816 505.443 496.088 509.301C505.957 514.537 510.267 517.43 513.111 520.737C515.207 523.177 517.441 526.937 518.07 529.102C518.69 531.267 519.222 536.65 519.241 541.059C519.271 547.741 518.956 549.414 517.313 551.156C516.132 552.406 513.564 553.489 510.917 553.843C508.142 554.207 504.098 553.823 500.093 552.8C496.57 551.904 490.479 549.414 486.563 547.269C482.637 545.133 479.429 542.929 479.429 542.388C479.429 541.846 480.758 540.301 482.381 538.943C484.005 537.595 487.104 536.04 489.269 535.499C491.591 534.918 493.067 534.013 492.88 533.284C492.703 532.615 491.04 531.926 489.19 531.769C487.34 531.611 483.611 532.231 480.905 533.137C478.199 534.042 473.82 536.385 471.173 538.343C467.208 541.286 465.653 543.431 462.2 550.753C459.907 555.624 457.417 560.142 456.679 560.771C455.932 561.411 453.226 562.523 450.667 563.232C447.564 564.104 445.659 564.209 444.95 563.547C444.193 562.848 444.193 561.5 444.931 558.872C445.6 556.5 445.629 555.103 445.009 554.935C444.429 554.788 444.635 552.731 445.541 549.769C446.357 547.062 448.522 542.191 450.352 538.943C452.173 535.696 456.945 529.722 460.95 525.657C464.965 521.603 470.534 516.505 473.348 514.34C477.264 511.328 478.111 510.236 476.969 509.665C476.152 509.262 473.604 509.429 471.311 510.039C469.009 510.649 465.358 512.273 463.193 513.661C461.029 515.039 457.093 518.198 454.456 520.678C451.818 523.148 447.784 527.823 445.491 531.07C443.189 534.318 440.227 538.973 438.909 541.404C437.59 543.844 435.425 548.667 434.107 552.121C432.778 555.575 431.037 558.734 430.23 559.148C429.413 559.551 426.756 559.551 424.326 559.148C421.886 558.734 419.121 558.124 418.176 557.78C417.143 557.406 416.621 556.461 416.887 555.428C417.123 554.483 418.068 551.048 418.973 547.8C419.878 544.553 421.728 539.238 423.086 535.991C424.444 532.743 427.199 527.655 429.226 524.673C431.243 521.701 435.504 516.899 438.692 514.005C441.88 511.112 447.597 507.224 451.386 505.364C455.174 503.514 459.041 501.999 459.995 502.018C460.94 502.028 461.56 501.487 461.363 500.808C461.12 499.994 459.398 499.673 456.197 499.843C453.55 499.981 449.388 500.739 446.958 501.536C444.517 502.323 439.755 504.754 436.38 506.939C432.385 509.508 428.104 513.572 424.159 518.522C420.823 522.725 416.434 529.692 414.407 534.023C412.39 538.353 410.137 543.854 409.409 546.236C408.68 548.617 406.978 551.678 405.63 553.036C403.495 555.182 402.649 555.408 399.234 554.798C397.069 554.404 394.934 553.558 394.501 552.908C394.058 552.268 393.93 548.42 394.216 544.356C394.491 540.301 395.672 534.101 396.823 530.578C397.975 527.065 400.208 521.75 401.783 518.768C403.357 515.796 405.778 512.027 407.145 510.403C408.513 508.779 411.721 505.335 414.279 502.737C416.828 500.149 420.902 497.098 423.342 495.956C425.772 494.815 429.984 493.053 432.69 492.039ZM503.173 503.406C503.242 503.071 506.007 503.091 509.323 503.445C512.629 503.8 517.332 504.676 519.773 505.394C522.203 506.112 526.592 508.199 529.514 510.029C532.712 512.037 536.56 515.718 539.167 519.26C541.932 523.02 544.244 527.675 545.533 532.054C547.059 537.3 547.462 540.961 547.187 547.377C546.872 554.689 546.439 556.451 543.88 560.575C542.257 563.183 540.171 565.81 539.256 566.411C538.331 567.001 537.327 567.267 537.032 566.991C536.727 566.725 537.553 564.511 538.862 562.07C540.181 559.64 541.765 555.654 542.385 553.213C543.231 549.867 543.221 547.476 542.345 543.372C541.706 540.4 540.574 536.306 539.826 534.269C539.078 532.241 538.134 530.588 537.73 530.588C537.317 530.588 536.992 535.45 536.992 541.384C536.992 551.589 536.855 552.308 532.073 557.071L532.81 551.206C533.371 546.757 533.096 543.618 531.699 538.205C530.675 534.288 528.501 528.413 526.867 525.165C525.224 521.918 522.183 517.322 520.107 514.94C517.824 512.332 513.692 509.311 509.687 507.313C506.026 505.502 503.094 503.741 503.173 503.406ZM374.133 570.18C374.152 570.042 376.042 570.258 378.334 570.672C380.627 571.085 385.901 571.42 390.054 571.42C395.22 571.42 397.089 571.715 395.957 572.335C395.052 572.837 392.1 573.998 389.394 574.923C386.688 575.848 382.811 576.872 380.784 577.207C377.242 577.797 377.035 577.669 375.589 574.126C374.762 572.099 374.103 570.327 374.133 570.18ZM402.186 575.366C404.892 574.628 409.32 574.175 412.026 574.343C414.732 574.52 418.491 574.746 423.834 575.032L420.882 576.37C419.258 577.108 415.49 578.23 412.518 578.86C409.104 579.578 404.38 579.736 399.726 579.283C393.547 578.683 392.75 578.417 394.806 577.63C396.154 577.118 399.48 576.094 402.186 575.366ZM430.23 578.309C433.743 576.468 437.069 574.973 437.61 574.982C438.151 575.002 439.479 575.337 440.562 575.75C442.353 576.429 442.382 576.547 440.808 577.157C439.853 577.521 439.076 578.151 439.076 578.555C439.076 578.968 441.841 580.169 445.226 581.241C450.618 582.934 451.012 583.22 448.434 583.525C446.81 583.721 442.825 583.397 439.578 582.826C436.331 582.245 431.46 581.743 423.834 581.665L430.23 578.309ZM447.341 576.803C446.958 576.153 448.089 575.986 450.539 576.311C452.625 576.596 457.211 577.039 460.733 577.305C464.246 577.561 475.1 578.22 484.841 578.761C494.583 579.303 508.309 580.198 515.345 580.749C522.38 581.3 534.109 582.206 541.42 582.767C548.722 583.318 556.033 584.184 557.656 584.686C559.28 585.178 560.982 586.389 561.435 587.363C562.114 588.8 561.927 589.016 560.451 588.514C559.457 588.17 554.872 588.691 550.276 589.666C545.671 590.65 536.599 592.756 530.105 594.35C523.61 595.944 510.326 599.31 500.585 601.82C490.843 604.339 482.647 606.593 482.381 606.839C482.106 607.095 482.548 608.01 483.365 608.886C484.172 609.762 485.717 610.264 486.809 610.008C487.891 609.742 504.718 605.5 524.201 600.57C543.684 595.649 559.732 591.162 559.87 590.62C560.018 590.01 560.707 590.109 561.631 590.857C562.468 591.536 563.137 593.523 563.107 595.285C563.078 597.617 562.468 598.749 560.854 599.497C559.634 600.048 549.341 602.932 537.976 605.904C526.611 608.876 506.902 613.974 494.189 617.231C481.466 620.499 468.182 624.012 464.669 625.036C461.147 626.059 449.634 629.149 439.086 631.905C428.527 634.66 416.129 637.947 411.534 639.197C406.929 640.447 402.058 641.756 400.71 642.091C398.349 642.681 398.221 642.465 397.561 637.072C397.188 633.981 395.298 627.24 393.36 622.103C391.431 616.956 389.857 612.645 389.867 612.508C389.876 612.37 392.868 611.602 396.528 610.795C400.179 609.998 410.914 607.754 420.39 605.806C429.856 603.857 438.938 602.046 440.562 601.771C442.185 601.495 448.601 600.176 454.829 598.838C461.048 597.499 473.447 594.685 482.381 592.589C491.306 590.492 501.716 588.465 505.505 588.091C509.293 587.717 513.495 586.861 514.853 586.192C517.116 585.06 516.752 584.912 510.425 584.351C506.636 584.007 500.88 583.495 497.633 583.2C494.386 582.905 483.316 581.566 473.033 580.238C462.751 578.909 452.891 577.817 451.14 577.817C449.378 577.817 447.666 577.364 447.341 576.803ZM378.807 583.721C376.957 579.47 376.957 579.322 378.708 580.11C379.712 580.562 384.74 581.753 389.886 582.757C395.023 583.761 401.891 584.804 405.138 585.08C408.385 585.345 415.47 585.906 420.882 586.31C426.294 586.723 431.047 587.186 431.46 587.353C431.863 587.52 434.264 587.658 436.783 587.658C439.312 587.658 441.191 587.835 440.965 588.042C440.739 588.258 438.121 588.711 435.15 589.046C432.168 589.38 426.412 590.177 422.358 590.817C416.119 591.791 412.321 591.673 380.725 588.15L378.807 583.721ZM458.765 586.605C462.239 585.158 464.768 584.863 470.573 585.247C474.627 585.522 479.941 585.995 482.381 586.31C484.812 586.625 487.026 587.068 487.301 587.294C487.567 587.52 486.238 587.697 484.349 587.678C482.45 587.658 476.92 588.544 472.049 589.636C467.179 590.738 456.994 592.746 449.418 594.104C441.841 595.462 434.087 596.997 432.198 597.499C430.299 598.011 422.555 599.32 414.978 600.412C407.401 601.515 398.988 602.883 396.282 603.453C393.576 604.024 390.477 604.693 389.394 604.93C387.84 605.274 387.062 604.487 385.704 601.18C384.76 598.887 383.992 596.456 383.982 595.777C383.982 594.862 385.567 594.685 390.132 595.098C393.507 595.403 398.939 596.102 402.186 596.643C405.433 597.194 412.075 597.608 416.946 597.558C421.817 597.519 426.245 597.096 426.786 596.624C427.327 596.161 431.312 594.675 435.642 593.327C439.971 591.988 445.944 590.345 448.926 589.676C451.897 589.006 456.325 587.629 458.765 586.605Z" fill="#6958FF"/>
<path d="M392.1 610.185C390.88 610.254 390.054 609.949 390.25 609.506C390.447 609.063 392.779 608.659 395.416 608.61C399.51 608.522 399.785 608.62 397.266 609.289C395.643 609.722 393.32 610.126 392.1 610.185Z" fill="#6958FF"/>
<path d="M402.56 595.265C399.48 595.147 399.215 594.95 400.563 593.858C401.429 593.159 404.144 592.628 406.585 592.687C409.035 592.736 412.144 593.179 413.502 593.661C415.5 594.36 415.263 594.438 412.272 594.055C410.029 593.759 408.74 593.956 408.976 594.556C409.192 595.098 408.966 595.54 408.484 595.54C407.992 595.54 407.598 595.098 407.598 594.556C407.598 594.015 406.162 593.612 404.4 593.671C401.35 593.759 401.32 593.809 403.662 594.576C405.817 595.294 405.689 595.373 402.56 595.265Z" fill="#6958FF"/>
<path fill-rule="evenodd" clip-rule="evenodd" d="M477.461 589.823C477.727 589.794 478.839 590.158 481.889 591.467L479.921 591.634C478.839 591.732 476.399 591.782 474.509 591.752C471.302 591.703 471.233 591.762 473.525 592.618C475.838 593.464 475.788 593.514 472.797 593.307C471.046 593.179 469.609 593.415 469.599 593.819C469.589 594.222 469.147 594.331 468.605 594.065C468.064 593.789 464.856 594.458 461.471 595.541C458.087 596.624 453.993 597.657 452.37 597.834C450.746 598.011 448.758 598.405 447.942 598.7C447.125 599.005 444.143 599.743 441.3 600.353C438.456 600.954 435.583 601.416 434.904 601.377C434.225 601.338 434.559 600.924 435.642 600.462C437.324 599.743 437.364 599.605 435.888 599.546C434.943 599.507 433.989 600.068 433.772 600.786C433.546 601.515 432.778 602.145 432.05 602.204C431.322 602.263 428.951 602.745 426.786 603.286C424.336 603.886 422.201 603.916 421.128 603.345C419.878 602.686 419.268 602.833 418.914 603.906C418.638 604.733 417.94 605.058 417.33 604.644C416.73 604.241 415.952 604.457 415.608 605.127C415.263 605.796 413.099 606.563 410.796 606.849C407.382 607.262 406.703 607.085 407.106 605.874C407.434 604.89 407.106 604.562 406.122 604.89C405.305 605.156 404.646 606.042 404.646 606.859C404.646 608.01 403.337 608.335 398.742 608.335C395.495 608.335 392.396 608.551 391.854 608.827C391.313 609.093 390.536 609.348 390.132 609.388C389.729 609.427 390.28 609.841 393.33 611.149L391.362 611.228C390.123 611.277 388.706 610.116 387.535 608.099C386.492 606.307 386.275 605.441 387.043 606.14C387.79 606.819 388.745 607.38 389.148 607.37C389.552 607.36 389.66 606.908 389.394 606.367C389.129 605.825 389.562 605.382 390.378 605.382C391.195 605.382 391.628 605.825 391.362 606.367C391.077 606.947 391.579 607.085 392.592 606.701C393.537 606.347 394.865 605.687 395.544 605.225C396.223 604.772 397.217 604.615 397.758 604.89C398.299 605.156 398.742 605.048 398.742 604.644C398.742 604.241 401.507 603.759 404.892 603.581C408.277 603.404 411.268 602.853 411.534 602.371C411.8 601.879 414.683 601.259 417.93 601.003C421.177 600.747 428.262 599.615 433.674 598.503C439.086 597.391 444.065 596.712 444.744 596.998C445.423 597.273 445.787 597.175 445.57 596.771C445.344 596.368 448.552 595.482 452.704 594.803C456.847 594.124 461.353 593.356 462.701 593.11C464.05 592.864 466.933 592.215 469.097 591.673C471.262 591.132 473.919 590.502 475.001 590.276C476.084 590.05 477.196 589.843 477.461 589.823ZM549.784 590.699C550.326 590.67 550.109 591.083 549.292 591.604C548.033 592.421 548.062 592.559 549.538 592.569C550.483 592.579 551.447 592.037 551.674 591.358C552.008 590.374 552.107 590.374 552.166 591.358C552.205 592.037 551.693 592.835 551.014 593.13C550.335 593.435 548.456 593.514 543.88 592.963L546.34 591.85C547.688 591.24 549.243 590.729 549.784 590.699ZM391.225 590.896C395.387 590.758 396.804 590.984 395.79 591.634C394.787 592.274 395.908 592.402 399.234 592.028C403.643 591.545 403.918 591.624 401.901 592.776C400.661 593.484 399.844 594.301 400.071 594.596C400.307 594.891 399.657 595.226 398.634 595.334C397.407 595.466 397.033 595.144 397.512 594.37C398.044 593.543 397.375 593.327 395.161 593.632C393.458 593.868 392.238 593.73 392.455 593.327C392.661 592.923 391.284 592.589 389.394 592.589C387.505 592.589 385.773 592.254 385.567 591.85C385.35 591.447 387.899 591.014 391.225 590.896ZM424.08 592.343C424.218 592.48 424.1 593.031 423.834 593.573C423.568 594.114 422.683 594.331 421.866 594.065C421.049 593.789 420.39 594.016 420.39 594.557C420.39 595.098 421.384 595.305 422.604 595.01C423.824 594.724 425.152 594.281 425.556 594.025C425.959 593.779 426.294 594.016 426.294 594.557C426.294 595.098 425.074 595.758 423.588 596.013C422.102 596.279 418.225 596.437 414.978 596.378C410.954 596.289 409.074 595.856 409.074 595.019C409.074 594.232 410.166 593.878 412.026 594.045C413.876 594.212 414.25 594.094 413.01 593.72C411.878 593.376 413.758 592.913 417.438 592.618C420.961 592.333 423.942 592.205 424.08 592.343ZM436.38 589.99C437.866 590.069 439.086 590.463 439.086 590.866C439.086 591.27 437.866 591.86 436.38 592.165C434.894 592.47 432.562 593.159 431.214 593.681C429.403 594.39 428.557 594.311 428.036 593.376C427.632 592.667 427.298 591.762 427.298 591.358C427.288 590.955 428.163 591.063 429.246 591.604C430.328 592.146 431.44 592.589 431.706 592.589C431.972 592.589 431.972 592.146 431.706 591.604C431.44 591.063 431.765 590.443 432.444 590.237C433.123 590.03 434.894 589.912 436.38 589.99Z" fill="#6958FF"/>
<path d="M480.167 590.689C479.223 590.65 478.445 590.286 478.445 589.882C478.445 589.479 480.768 589.311 483.611 589.508C487.272 589.774 488.206 590.089 486.809 590.61C485.727 591.014 483.287 591.624 481.397 591.968C478.878 592.421 478.485 592.342 479.921 591.673C481.614 590.886 481.653 590.748 480.167 590.689Z" fill="#6958FF"/>
<path d="M478.937 589.301L484.841 588.721C488.088 588.396 491.276 588.298 491.926 588.504C492.585 588.701 493.136 589.036 493.156 589.252C493.185 589.459 489.997 589.557 478.937 589.301Z" fill="#6958FF"/>
<path d="M492.221 587.156C495.193 586.91 498.056 586.251 498.568 585.709C499.079 585.158 500.851 584.725 502.504 584.735C504.157 584.735 506.164 585.158 506.981 585.66C508.29 586.477 508.29 586.635 506.981 587.038C506.164 587.294 503.065 587.796 500.093 588.15C497.111 588.504 494.022 588.76 493.205 588.711C492.388 588.662 490.401 588.652 488.777 588.691C487.153 588.721 486.042 588.495 486.317 588.18C486.583 587.865 489.24 587.402 492.221 587.156Z" fill="#6958FF"/>
<path d="M486.563 585.247C491.503 585.542 493.982 585.355 493.599 584.715C493.274 584.174 493.156 583.751 493.353 583.771C493.54 583.8 496.137 584.43 499.109 585.188C503.95 586.418 504.157 586.575 501.077 586.634C499.188 586.664 495.645 586.673 493.205 586.654C490.775 586.624 486.563 586.191 483.857 585.699C479.469 584.883 479.764 584.833 486.563 585.247Z" fill="#6958FF"/>
<path d="M430.308 585.827C426.638 585.463 423.804 584.696 423.548 583.977C423.234 583.082 424.562 582.767 428.39 582.826C431.292 582.865 436.695 583.416 440.384 584.056C444.084 584.686 446.78 585.542 446.377 585.946C445.974 586.349 443.946 586.684 441.87 586.684C439.519 586.684 438.092 586.221 438.082 585.454C438.072 584.578 437.865 584.538 437.344 585.335C436.862 586.083 434.549 586.241 430.308 585.827Z" fill="#6958FF"/>
<path d="M456.06 582.777C455.381 582.757 455.076 582.304 455.371 581.763C455.666 581.222 456.247 580.779 456.65 580.779C457.053 580.779 457.368 581.33 457.339 582.009C457.309 582.688 457.959 583.062 458.766 582.846C459.582 582.629 461.353 582.245 462.702 581.98C464.059 581.724 466.047 582.039 467.129 582.668C468.851 583.682 468.635 583.79 465.427 583.535C463.4 583.367 461.59 583.682 461.393 584.223C461.196 584.765 459.08 585.729 456.699 586.359C454.318 586.999 451.376 587.323 450.156 587.097C448.611 586.812 448.168 587.038 448.68 587.865C449.165 588.645 448.919 588.865 447.942 588.524C447.135 588.229 446.466 587.373 446.466 586.605C446.459 585.673 447.607 585.201 449.91 585.188C451.799 585.178 454.239 584.637 455.322 583.987C456.404 583.338 456.739 582.796 456.06 582.777Z" fill="#6958FF"/>
<path d="M407.106 581.606L412.026 580.326C414.732 579.618 417.094 578.988 417.261 578.929C417.438 578.86 417.713 579.362 417.871 580.041C418.068 580.897 416.483 581.32 407.106 581.606Z" fill="#6958FF"/>
<path d="M447.686 580.661C445.118 579.913 443.002 578.978 443.002 578.584C442.992 578.181 445.324 578.082 448.168 578.358C451.021 578.634 454.013 579.047 454.829 579.283C455.646 579.509 459.07 579.942 462.455 580.238C465.84 580.533 470.485 581.182 472.787 581.674C475.09 582.167 480.62 582.836 485.087 583.151C489.584 583.475 493.53 584.243 493.943 584.883C494.484 585.729 493.628 585.867 490.745 585.424C488.58 585.089 483.267 584.489 478.937 584.105C474.608 583.712 470.622 583.338 470.081 583.269C469.54 583.19 467.769 582.777 466.145 582.344C464.522 581.911 462.091 581.842 460.733 582.206C458.736 582.747 458.549 583.042 459.749 583.781C460.566 584.273 460.783 584.715 460.241 584.745C459.7 584.775 458.706 584.233 458.037 583.525C457.358 582.826 457.142 581.901 457.545 581.478C457.949 581.045 456.945 580.986 455.321 581.35C453.659 581.724 450.333 581.428 447.686 580.661Z" fill="#6958FF"/>
<path d="M411.79 581.419C417.3 581.291 418.048 581.054 417.625 579.549C417.359 578.604 417.595 577.826 418.156 577.826C418.707 577.826 418.884 578.348 418.55 578.988C418.107 579.824 418.629 579.952 420.39 579.421C422.102 578.909 422.397 578.968 421.374 579.618C420.557 580.139 420.232 581.054 420.636 581.655C421.039 582.255 421.925 582.58 422.604 582.383C423.283 582.176 423.834 582.806 423.834 583.771C423.834 585.168 423.548 585.296 422.456 584.381C421.689 583.751 419.918 583.19 418.52 583.131C417.113 583.072 413.394 582.895 410.265 582.737C407.126 582.57 404.764 582.245 405.01 581.999C405.256 581.763 408.307 581.497 411.79 581.419Z" fill="#6958FF"/>
<path d="M440.808 577.157C442.382 576.557 442.362 576.429 440.562 575.671C439.302 575.15 440.011 575.061 442.53 575.435C444.694 575.75 446.908 576.439 447.45 576.951C448.079 577.551 447.272 577.61 445.216 577.118C442.5 576.468 441.998 576.626 442.018 578.072C442.028 579.017 441.378 579.795 440.562 579.795C439.745 579.795 439.086 579.352 439.086 578.811C439.086 578.269 439.863 577.531 440.808 577.157Z" fill="#6958FF"/>
<path d="M592.096 564.767C589.931 564.973 586.831 564.973 585.208 564.757C583.584 564.541 585.355 564.363 589.144 564.373C592.932 564.373 594.261 564.55 592.096 564.767Z" fill="#6958FF"/>
<path d="M621.123 510.452C626.801 509.645 634.555 508.346 638.343 507.579C642.132 506.801 645.674 506.122 646.215 506.073C646.756 506.024 649.521 507.53 652.365 509.429C655.209 511.318 659.332 515.196 661.536 518.04C663.73 520.884 665.964 524.978 666.495 527.143C667.017 529.308 667.322 531.198 667.164 531.336C667.007 531.474 660.453 532.448 652.611 533.481C644.769 534.524 630.373 536.325 620.631 537.487C610.89 538.648 595.618 539.829 586.684 540.114C573.262 540.538 570.104 540.37 568.48 539.16C566.571 537.743 566.601 537.684 569.464 537.123C571.088 536.808 575.958 536.109 580.288 535.558C584.617 535.016 591.259 534.328 595.048 534.042C598.836 533.757 609.906 532.596 619.647 531.483C629.389 530.362 641.866 528.925 647.376 528.295C652.877 527.665 657.836 526.701 658.377 526.159C659.04 525.503 658.489 523.896 656.724 521.337C655.278 519.221 652.985 516.633 651.627 515.59C649.994 514.33 647.671 513.71 644.739 513.749C642.309 513.779 631.012 515.147 619.647 516.78C606.57 518.66 595.195 519.733 588.652 519.703C582.974 519.674 576.549 519.32 574.384 518.926C570.822 518.266 570.684 518.129 572.908 517.538C574.256 517.174 582.669 515.964 591.604 514.842C600.538 513.72 608.499 512.608 609.316 512.371C610.132 512.125 615.446 511.269 621.123 510.452Z" fill="#6958FF"/>
<path d="M420.882 412.983L429.718 403.88C434.579 398.871 438.672 394.777 438.82 394.777C438.968 394.777 439.086 394.885 439.095 395.023C439.095 395.161 435.002 399.255 420.882 412.983Z" fill="#6958FF"/>
<path d="M214.346 490.755C214.926 489.268 216.097 486.798 216.924 485.283L218.439 482.507L222.011 484.682C223.969 485.873 232.215 490.627 240.333 495.232C248.451 499.838 257.238 504.975 264.637 509.699L262.325 511.412C261.056 512.356 252.259 517.73 242.793 523.349C233.317 528.978 224.579 534.076 223.359 534.686C221.342 535.68 220.929 535.395 218.685 531.35C217.327 528.91 216.442 526.479 216.717 525.937C216.983 525.396 222.739 521.853 229.509 518.064C236.269 514.275 242.252 511.175 242.793 511.175C243.334 511.175 243.777 510.732 243.777 510.191C243.777 509.65 242.783 508.912 241.563 508.558C240.343 508.193 236.692 506.166 233.445 504.05C230.198 501.934 224.333 498.687 220.407 496.836C213.372 493.51 213.293 493.422 214.346 490.755Z" fill="#6958FF"/>
<path d="M124.468 503.922C127.578 502.102 137.191 496.344 145.821 491.128C154.451 485.922 161.86 481.661 162.303 481.661C162.736 481.661 163.976 483.649 165.058 486.09C166.14 488.521 166.868 490.843 166.672 491.256C166.475 491.66 160.492 495.419 153.388 499.622C146.274 503.814 140.242 507.692 139.966 508.233C139.701 508.774 144.788 512.091 151.282 515.614C157.776 519.127 163.425 521.991 163.828 521.962C164.231 521.942 165.087 522.493 165.727 523.192C166.632 524.176 166.573 525.534 165.481 529.146C164.714 531.714 163.631 533.82 163.09 533.82C162.549 533.82 159.557 532.492 156.448 530.868C153.339 529.254 149.019 526.912 146.854 525.682C144.689 524.442 139.602 521.509 135.538 519.157C131.484 516.795 126.053 513.596 123.484 512.041C120.916 510.486 118.811 508.774 118.811 508.233C118.811 507.692 121.359 505.753 124.468 503.922Z" fill="#6958FF"/>
<path d="M191.813 482.153C192.885 478.364 194.174 474.487 194.686 473.542C195.197 472.587 196.044 471.82 196.575 471.82C197.097 471.82 197.756 472.263 198.022 472.804C198.297 473.345 199.291 473.778 200.236 473.768C201.18 473.758 202.784 474.31 203.788 474.998C205.529 476.189 205.313 477.301 199.015 499.868C195.384 512.858 191.301 527.246 189.933 531.852C188.575 536.448 187.286 540.326 187.08 540.463C186.873 540.591 184.275 539.597 181.294 538.249C178.322 536.891 175.882 535.671 175.882 535.543C175.872 535.405 176.945 531.97 178.263 527.916C179.572 523.851 182.721 513.449 185.259 504.788C187.798 496.128 190.74 485.942 191.813 482.153Z" fill="#6958FF"/>
<path d="M29.7469 387.622C27.8478 387.829 24.3153 387.829 21.875 387.622C19.4347 387.416 20.9894 387.248 25.319 387.238C29.6485 387.238 31.646 387.406 29.7469 387.622Z" fill="#6958FF"/>
<path d="M685.083 410.769C693.014 410.621 693.368 410.523 691.971 408.84C690.603 407.207 690.622 407.187 692.256 408.555C693.378 409.49 693.653 410.316 693.033 410.808C692.482 411.241 688.595 411.448 676.719 410.917L685.083 410.769Z" fill="#6958FF"/>
<path d="M629.487 388.242L634.407 386.658C637.113 385.782 642.427 385.044 646.215 384.995C650.003 384.955 655.76 385.624 659.007 386.471C662.254 387.317 667.085 389.197 669.732 390.653C672.389 392.11 678.264 396.844 682.8 401.174C687.326 405.504 691.026 409.382 691.016 409.785C690.996 410.188 686.667 410.533 681.393 410.533C676.118 410.543 670.47 410.749 668.847 410.986C667.223 411.232 660.139 412.363 653.103 413.495C646.067 414.637 638.983 415.975 637.359 416.477C635.736 416.979 633.305 417.363 631.947 417.333C629.684 417.284 629.645 417.205 631.455 416.408C632.538 415.936 639.406 413.702 646.707 411.448C654.008 409.204 661.988 406.646 664.419 405.78C666.849 404.904 669.29 404.303 669.831 404.431C670.372 404.559 669.713 403.742 668.355 402.611C667.007 401.479 663.897 399.245 661.467 397.651C659.036 396.046 653.723 393.635 649.659 392.287C645.605 390.929 639.406 389.472 629.487 388.242Z" fill="#6958FF"/>
<path d="M208.833 376.757C209.098 376.58 210.614 375.468 212.178 374.277C214.412 372.575 215.799 372.25 218.574 372.742C220.522 373.087 223.553 374.199 225.314 375.212C227.076 376.226 228.404 377.289 228.266 377.564C228.129 377.84 226.692 377.397 225.068 376.59C223.445 375.773 220.68 375.104 218.918 375.104C217.157 375.094 214.392 375.754 212.769 376.57C211.145 377.387 209.482 377.83 209.079 377.554C208.675 377.289 208.567 376.925 208.833 376.757Z" fill="#6958FF"/>
<path d="M589.764 319.244C592.676 318.565 596.376 317.827 598 317.611C599.623 317.394 603.717 317.394 607.102 317.611C610.487 317.837 615.574 318.89 618.417 319.973C621.261 321.045 626.024 323.85 628.995 326.192C631.977 328.544 636.395 333.081 638.816 336.29C641.236 339.498 644.68 343.897 646.461 346.062C648.242 348.227 649.689 350.55 649.679 351.229C649.669 351.908 648.665 352.459 647.445 352.469C646.225 352.469 642.574 352.981 639.327 353.591C636.08 354.211 630.215 355.539 626.289 356.543C622.363 357.547 619.146 358.029 619.146 357.626C619.136 357.222 620.799 356.228 622.836 355.421C624.872 354.614 627.195 354.053 628.011 354.171C628.828 354.289 629.133 354.073 628.7 353.669C628.267 353.276 629.822 351.996 636.375 348.709L632.439 347.991C630.275 347.587 625.404 347.725 621.615 348.276C617.099 348.936 609.306 351.534 598.984 355.825C590.325 359.427 578.369 364.761 572.416 367.684C566.463 370.606 561.494 372.909 561.366 372.811C561.238 372.712 563.895 370.606 567.27 368.136C570.645 365.656 578.054 360.972 583.732 357.714C589.41 354.457 596.504 350.845 599.476 349.684C602.447 348.522 607.761 346.712 611.284 345.668C614.806 344.615 620.12 343.267 623.091 342.667C626.063 342.066 629.497 341.476 630.717 341.358C631.937 341.24 632.951 340.925 632.961 340.649C632.98 340.384 630.215 337.451 626.811 334.154C623.416 330.847 618.417 327.049 615.712 325.7C613.006 324.352 608.804 322.689 606.364 322.01C603.746 321.281 598.246 320.917 592.932 321.114C587.983 321.301 584.057 321.242 584.204 320.967C584.362 320.701 586.861 319.923 589.764 319.244Z" fill="#6958FF"/>
<path d="M495.665 290.95L502.523 283.815C506.302 279.889 509.51 276.68 509.657 276.68C509.815 276.68 509.933 276.789 509.943 276.926C509.943 277.064 506.735 280.272 495.665 290.95Z" fill="#6958FF"/>
<path d="M243.184 358.59C241.334 356.277 239.494 353.512 239.09 352.439C238.382 350.56 238.431 350.55 240.566 352.203C241.786 353.138 246.096 357.468 250.16 361.828C254.214 366.188 258.977 370.734 260.738 371.935C262.499 373.126 263.71 374.336 263.444 374.602C263.178 374.868 261.486 374.1 259.685 372.88C257.894 371.659 254.204 368.894 251.479 366.729C248.753 364.564 245.024 360.903 243.184 358.59Z" fill="#6958FF"/>
<path d="M488.58 356.888C491.66 353.64 494.169 350.54 494.159 349.999C494.14 349.457 494.366 349.349 494.651 349.753C494.937 350.156 490.873 357.025 485.609 365.007C480.354 372.988 472.974 383.951 469.215 389.364C465.457 394.777 460.32 401.646 457.821 404.618C455.312 407.59 449.408 415.011 444.694 421.103C439.991 427.194 435.907 432.174 435.642 432.174C435.366 432.174 436.783 429.182 438.771 425.531C440.768 421.88 444.911 414.902 447.991 410.031C451.061 405.16 455.961 397.847 458.874 393.793C461.796 389.728 468.409 381.097 473.584 374.602C478.76 368.107 485.51 360.135 488.58 356.888Z" fill="#6958FF"/>
<path d="M445.482 247.461L447.696 245.336C448.916 244.174 450.569 243.22 451.386 243.22C452.202 243.22 454.525 244.253 456.552 245.523C458.579 246.782 461.796 249.184 463.685 250.857C465.575 252.52 468.684 254.518 474.017 256.683L468.113 259.645C464.866 261.269 459.887 263.109 457.044 263.739C454.2 264.359 450.776 264.654 449.418 264.379C448.07 264.113 446.958 263.227 446.958 262.41C446.958 261.485 448.325 260.678 450.648 260.245C452.675 259.861 454.889 259.645 455.568 259.753C456.247 259.861 457.024 259.507 457.29 258.966C457.555 258.425 456.345 256.535 454.584 254.764C452.822 253.002 450.057 250.63 445.482 247.461Z" fill="#6958FF"/>
<path d="M309.691 167.933C308.875 166.034 308.451 164.302 308.747 164.066C309.032 163.829 310.252 163.987 311.453 164.41C312.643 164.833 314.621 166.683 315.831 168.524C317.052 170.364 318.301 174.084 318.606 176.79C319.069 180.816 318.714 182.646 316.648 186.878C314.523 191.228 313.303 192.438 308.953 194.515C306.11 195.873 303.01 196.985 302.065 196.975C301.121 196.975 300.343 196.522 300.343 195.981C300.343 195.44 299.684 195.223 298.867 195.489C298.051 195.755 297.391 195.538 297.391 194.997C297.391 194.456 298.385 193.609 299.605 193.107C300.826 192.615 303.256 190.844 305.017 189.171C306.779 187.508 308.875 184.595 309.691 182.695C310.508 180.796 311.167 177.479 311.167 175.314C311.167 173.149 310.508 169.833 309.691 167.933Z" fill="#6958FF"/>
<path d="M441.004 167.392C443.956 164.981 447.725 162.058 449.368 160.887C451.021 159.716 452.674 158.712 453.048 158.672C453.422 158.623 453.019 159.804 452.153 161.29C451.297 162.776 448.807 166.211 446.633 168.917C444.458 171.624 440.424 176.161 432.69 184.152L435.72 187.36C437.393 189.122 440.168 192.783 441.89 195.489C443.622 198.195 445.137 200.784 445.255 201.236C445.383 201.689 448.138 200.902 451.385 199.485C455.941 197.507 459.169 194.948 465.516 188.325C472.827 180.707 473.692 180.077 473.2 182.695C472.905 184.319 472.384 186.976 472.049 188.6C471.508 191.208 471.577 191.326 472.6 189.584C473.25 188.502 474.489 187.055 475.365 186.366C476.251 185.687 477.52 185.126 478.199 185.136C478.878 185.146 479.439 185.933 479.449 186.878C479.459 187.823 478.179 190.598 476.595 193.029C475.011 195.469 472.236 198.934 470.426 200.734C468.615 202.535 464.03 206.108 460.241 208.667C456.453 211.225 450.697 214.335 447.45 215.575C444.202 216.805 438.889 218.282 435.642 218.843C432.395 219.413 428.409 219.541 426.786 219.138C423.863 218.419 423.883 218.39 428.754 216.933C431.46 216.117 434.982 214.945 436.586 214.325C438.19 213.705 439.961 212.731 440.522 212.16C441.083 211.59 443.14 210.044 448.65 206.315L443.622 206.206C440.857 206.147 436.822 205.793 434.658 205.399C431.696 204.878 431.086 204.484 432.198 203.805C433.005 203.303 434.668 202.89 435.888 202.89C437.108 202.88 438.102 202.427 438.102 201.886C438.102 201.345 436.537 199.239 434.628 197.211C432.719 195.184 431.155 193.304 431.145 193.029C431.145 192.763 430.279 191.543 427.278 188.108L422.85 190.568C420.41 191.926 417.94 192.92 417.339 192.783C416.749 192.645 417.969 190.312 420.045 187.596C422.132 184.88 426.491 180.205 429.738 177.214C432.985 174.222 438.052 169.803 441.004 167.392Z" fill="#6958FF"/>
</svg>
